<?xml version="1.0" standalone="no"?>
<!DOCTYPE svg PUBLIC "-//W3C//DTD SVG 20010904//EN"
 "http://www.w3.org/TR/2001/REC-SVG-20010904/DTD/svg10.dtd">
<svg version="1.0" xmlns="http://www.w3.org/2000/svg"
 width="920.000000pt" height="512.000000pt" viewBox="0 0 920.000000 512.000000"
 preserveAspectRatio="xMidYMid meet">

<g transform="translate(0.000000,512.000000) scale(0.100000,-0.100000)"
fill="#000000" stroke="none">
<path d="M5888 4003 c6 -2 18 -2 25 0 6 3 1 5 -13 5 -14 0 -19 -2 -12 -5z"/>
<path d="M6065 3921 c33 -43 30 -77 -17 -171 -28 -54 -43 -72 -96 -107 -35
-23 -100 -55 -145 -70 -74 -24 -96 -27 -234 -27 l-153 -1 -11 -27 c-16 -38
-47 -64 -60 -51 -8 8 -5 24 9 56 l20 45 -36 29 -37 29 -30 -34 c-47 -56 -103
-74 -236 -80 -92 -3 -122 -1 -146 11 -38 20 -56 63 -51 122 3 45 3 45 -29 45
-35 0 -165 -45 -315 -109 -110 -46 -195 -71 -248 -71 -56 0 -141 48 -166 93
l-21 37 -33 -46 c-61 -85 -160 -105 -262 -53 -49 25 -82 90 -76 150 2 21 1 39
-2 39 -3 0 -47 -21 -98 -46 -108 -54 -181 -119 -230 -205 -80 -141 -82 -353
-5 -463 60 -85 173 -142 298 -150 33 -2 43 -1 22 1 -20 2 -36 7 -33 11 2 4
-16 8 -40 9 -42 2 -91 20 -81 30 3 2 16 0 29 -7 20 -10 21 -10 6 3 -10 8 -14
18 -10 22 4 5 1 5 -5 1 -14 -8 -18 6 -6 18 12 11 12 37 1 29 -7 -4 -9 1 -6 14
6 21 -13 26 -29 8 -4 -4 -3 -6 2 -2 6 3 12 -4 12 -16 2 -15 0 -18 -6 -8 -5 7
-11 9 -13 5 -3 -5 -3 -2 -1 6 3 12 1 12 -8 3 -6 -6 -9 -20 -5 -30 4 -10 10
-13 14 -8 4 6 15 11 24 13 17 3 17 1 0 -27 -9 -17 -19 -26 -20 -21 -2 6 -8 8
-13 4 -5 -3 -12 2 -15 10 -3 9 -10 14 -14 11 -13 -8 -37 38 -34 62 2 12 -1 25
-6 28 -6 3 -10 11 -10 18 0 6 7 2 15 -9 17 -22 20 -12 5 17 -8 15 -8 19 2 17
7 -2 12 3 10 10 -1 6 1 11 5 11 20 -3 34 2 29 10 -4 5 -14 8 -24 6 -9 -2 -21
-4 -25 -4 -5 -1 -5 -6 -1 -13 4 -6 3 -8 -4 -4 -6 3 -15 -2 -21 -11 -6 -10 -11
-13 -11 -6 0 6 12 21 26 32 22 17 24 23 13 43 -6 13 -8 20 -4 16 5 -4 14 -3
22 3 7 6 13 8 13 4 0 -4 7 -2 15 5 8 7 12 17 8 23 -3 6 -1 7 5 3 7 -4 12 0 12
10 0 10 -3 14 -7 11 -3 -4 -12 -2 -20 5 -12 10 -13 7 -8 -18 5 -26 5 -27 -5
-6 -6 16 -7 30 0 40 5 10 10 12 10 4 0 -6 3 -12 8 -11 15 2 52 -14 52 -23 0
-5 -4 -6 -10 -3 -5 3 -10 1 -10 -4 0 -6 5 -11 11 -11 5 0 7 -5 3 -11 -4 -8 -9
-7 -15 2 -6 10 -9 10 -9 2 0 -7 9 -17 21 -23 11 -7 18 -14 15 -17 -3 -3 -13 0
-23 8 -14 12 -16 12 -8 0 5 -10 4 -12 -4 -7 -6 4 -9 12 -6 17 4 5 2 9 -4 9
-17 0 -23 -20 -7 -26 12 -5 13 -11 6 -24 -17 -32 7 -32 38 0 26 25 32 27 42
15 9 -11 9 -15 1 -16 -6 -1 -15 -2 -21 -3 -14 -1 -14 -20 -1 -24 6 -2 11 2 11
8 0 7 6 10 14 7 16 -6 16 14 -1 34 -15 19 9 43 26 26 14 -14 14 -30 -1 -21 -7
5 -8 3 -3 -5 5 -9 10 -10 18 -2 7 7 7 14 -1 24 -9 10 -8 17 1 27 10 12 9 12
-5 2 -13 -11 -18 -10 -24 0 -14 21 -13 38 1 38 7 0 15 6 18 13 3 8 -1 14 -9
14 -7 0 -11 -4 -8 -9 3 -4 0 -8 -5 -8 -6 0 -11 4 -11 9 0 10 -26 9 -36 -2 -4
-4 3 -7 16 -7 13 0 20 -3 16 -7 -11 -11 -36 -12 -36 -2 0 6 -5 7 -10 4 -6 -3
-14 4 -19 17 -6 13 -10 17 -11 8 0 -12 -3 -11 -11 3 -6 10 -8 21 -5 24 3 4 6
1 6 -6 0 -7 5 -9 11 -6 6 4 13 -2 16 -14 4 -17 7 -18 19 -6 17 16 19 29 3 20
-6 -4 -13 3 -16 15 -4 16 -8 18 -14 8 -6 -9 -9 -9 -9 -1 0 23 20 24 28 2 6
-16 10 -18 14 -8 3 8 -3 25 -13 38 -11 13 -19 17 -19 10 0 -7 -3 -10 -6 -6 -3
3 -1 13 4 23 9 16 10 15 17 -5 3 -12 11 -18 17 -15 6 4 8 2 4 -4 -3 -6 -2 -13
4 -17 5 -3 10 2 10 12 0 11 5 24 12 31 9 9 9 12 1 12 -7 0 -15 -5 -18 -10 -4
-6 -11 -8 -16 -4 -14 8 -2 22 18 19 24 -2 73 -23 73 -31 0 -3 -7 -4 -15 0 -8
3 -19 -3 -25 -12 -9 -14 -10 -13 -4 7 4 17 3 21 -6 16 -10 -6 -10 -20 0 -82 1
-11 30 0 30 12 0 9 6 12 15 9 9 -4 15 0 15 9 0 11 7 15 21 12 16 -3 18 -1 10
9 -11 13 -5 26 11 26 5 0 7 -4 3 -9 -3 -5 0 -13 6 -17 8 -4 9 -3 5 4 -4 7 -2
12 3 12 6 0 11 5 11 10 0 6 -3 9 -7 9 -20 -3 -34 2 -28 10 3 6 15 8 26 6 11
-2 29 5 39 15 21 21 27 35 10 25 -11 -7 -14 8 -4 18 10 9 34 -4 27 -16 -3 -6
-1 -7 5 -3 7 4 12 3 12 -2 0 -13 -25 -33 -32 -26 -3 2 -8 -2 -12 -11 -4 -12
-2 -14 13 -6 10 6 22 7 26 3 3 -4 6 -2 4 3 -4 18 13 45 24 38 6 -3 7 -1 3 6
-4 6 0 14 10 18 10 4 19 2 22 -5 2 -7 9 -9 15 -5 7 4 5 -2 -3 -12 -8 -10 -10
-16 -4 -12 6 3 22 -5 37 -19 17 -15 27 -20 28 -12 0 7 4 0 9 -15 8 -27 -10
-84 -22 -72 -3 3 -3 -7 -1 -22 3 -15 19 -41 37 -56 17 -15 91 -87 165 -160 74
-73 131 -127 128 -121 -4 7 0 18 9 25 13 11 14 9 9 -14 -5 -17 -2 -33 5 -42
22 -27 1 -45 -117 -101 -188 -88 -232 -99 -408 -99 -130 0 -159 3 -220 23
-150 49 -237 154 -264 317 -7 38 -9 42 -10 19 -2 -46 34 -153 68 -204 17 -25
108 -122 203 -215 168 -165 252 -243 216 -200 -12 15 -14 25 -6 38 5 10 7 21
4 24 -3 3 -10 -5 -16 -18 -10 -23 -10 -23 -6 -1 2 12 0 20 -5 16 -5 -3 -6 3
-3 13 4 14 4 15 -4 4 -8 -11 -10 -11 -15 0 -3 9 -6 10 -6 2 -1 -6 4 -15 9 -18
6 -3 10 -12 10 -18 -1 -7 -9 -1 -20 11 -17 21 -18 25 -5 39 8 8 12 19 9 25 -4
7 -2 8 4 4 6 -4 9 -13 6 -21 -4 -10 0 -13 16 -10 12 2 23 -2 27 -10 3 -8 9
-12 15 -9 5 3 1 15 -9 27 -18 22 -18 22 3 4 11 -9 24 -15 27 -12 4 3 3 0 -3
-7 -7 -8 -4 -18 8 -32 l17 -21 -23 20 -23 19 5 -29 c5 -24 4 -26 -3 -10 -8 16
-10 16 -10 4 -1 -9 6 -22 14 -29 14 -11 19 -7 16 13 0 4 4 7 10 7 6 0 8 -13 5
-30 -2 -18 0 -28 6 -24 5 3 7 8 4 11 -2 3 -1 15 4 28 6 16 4 30 -8 46 -13 20
-13 22 -1 12 10 -9 19 -9 26 -2 6 6 10 5 10 -5 0 -8 -5 -12 -10 -9 -5 3 -8 0
-5 -8 3 -8 16 -14 29 -14 18 0 24 -6 26 -25 l2 -25 -9 25 c-8 23 -8 23 -7 -8
1 -19 6 -36 11 -39 5 -3 6 -1 2 5 -3 6 -2 13 4 17 13 8 13 47 0 63 -6 6 -7 10
-4 7 4 -3 13 0 20 6 8 7 14 7 19 -1 4 -6 1 -9 -5 -8 -8 2 -12 -12 -12 -42 -1
-25 -6 -51 -12 -59 -9 -12 -8 -13 4 -6 21 13 40 15 41 4 1 -5 2 -13 3 -18 0
-5 4 -13 8 -17 12 -11 0 37 -12 51 -7 8 -7 15 -1 19 5 3 12 0 14 -6 4 -10 6
-10 6 0 1 7 6 10 11 7 8 -5 7 -12 -2 -23 -12 -16 -11 -16 7 0 11 9 23 18 26
20 9 5 39 -23 34 -32 -3 -4 2 -13 9 -19 10 -9 16 -9 21 -1 4 6 1 9 -6 8 -7 -2
-13 5 -14 15 0 9 5 16 10 15 6 -2 9 -7 7 -13 -2 -5 5 -2 16 8 15 14 21 15 30
5 13 -17 13 -29 -1 -48 -9 -13 -9 -13 3 -2 8 7 15 22 15 33 0 10 3 18 6 17 3
-2 13 3 21 10 12 10 17 10 27 -1 6 -8 9 -17 6 -20 -3 -4 -2 -4 3 -1 4 3 7 11
7 17 0 7 9 12 20 12 11 -1 19 -6 17 -13 -1 -7 4 -11 10 -10 8 2 13 -6 12 -19
-1 -13 3 -20 8 -17 5 3 7 9 4 12 -3 3 1 13 10 23 8 9 17 25 18 33 2 17 21 23
21 7 0 -5 3 -13 7 -17 4 -3 6 2 4 13 -3 11 0 26 5 34 6 10 9 11 10 2 1 -7 2
-19 3 -25 1 -7 -2 -21 -6 -31 -5 -9 -5 -16 -1 -15 4 2 8 -1 8 -7 0 -5 -4 -9
-8 -7 -5 1 -6 -2 -2 -8 5 -8 11 -8 19 -1 7 6 17 7 22 3 4 -4 3 0 -4 10 -9 11
-10 18 -2 23 5 3 10 15 10 25 0 10 5 22 10 25 7 4 9 -3 6 -19 -3 -16 2 -29 12
-37 14 -11 15 -11 5 1 -10 11 -9 17 4 32 16 18 17 18 42 -4 l26 -23 -22 26
c-34 38 -28 47 9 13 18 -16 25 -20 16 -9 -11 14 -13 27 -7 43 11 29 21 28 15
-2 -3 -16 2 -30 12 -38 15 -11 15 -11 6 2 -5 8 -9 21 -8 28 1 6 2 17 3 23 0 5
5 8 10 4 6 -3 8 -14 6 -25 -2 -11 0 -22 4 -25 5 -2 7 9 6 25 -1 17 1 33 6 36
9 5 12 -5 12 -38 0 -10 3 -15 8 -13 4 3 6 17 3 31 -3 14 -1 23 5 20 13 -9 34
21 27 40 -3 8 -11 12 -17 8 -7 -4 -10 -1 -7 7 4 12 -7 26 -79 101 -13 13 -42
43 -65 68 -24 24 -59 61 -79 80 -39 39 -54 84 -33 100 8 7 14 7 18 1 4 -5 2
-12 -4 -16 -5 -3 -10 -11 -10 -18 0 -6 6 -2 14 9 9 11 11 23 5 28 -5 6 -2 17
8 28 18 20 27 52 12 42 -5 -3 -9 0 -9 7 0 7 -3 9 -6 6 -4 -4 -1 -13 5 -21 8
-9 8 -16 2 -20 -10 -6 -27 30 -23 50 3 16 -25 37 -40 31 -7 -3 -4 -6 7 -6 11
-1 16 -5 10 -9 -5 -4 -15 -16 -21 -26 -5 -11 -18 -20 -27 -22 -9 -1 -15 2 -12
6 3 5 -3 7 -15 5 -11 -2 -19 1 -17 8 1 6 -3 11 -10 12 -6 0 -15 4 -20 8 -4 5
-1 7 7 5 9 -2 14 3 12 12 -2 8 0 11 5 7 4 -5 8 -13 8 -18 0 -5 5 -8 10 -6 6 1
9 6 7 10 -1 5 2 6 8 2 5 -3 11 -1 11 4 1 6 3 16 4 21 1 6 3 15 4 22 0 7 7 4
14 -7 8 -10 18 -15 24 -12 5 4 23 -7 38 -23 30 -31 45 -38 45 -19 0 5 -4 7
-10 4 -5 -3 -7 0 -4 8 3 8 0 18 -7 23 -9 5 -10 2 -6 -9 9 -25 4 -21 -23 16
-20 28 -21 30 -3 14 21 -18 22 -18 33 0 10 15 11 16 6 1 -3 -10 -1 -20 4 -23
6 -4 11 -1 11 4 1 6 2 15 3 20 0 6 7 16 14 22 21 22 13 33 -10 13 -14 -12 -18
-13 -10 -3 10 13 8 19 -8 34 -14 12 -17 22 -10 30 5 6 7 15 3 18 -3 4 -1 13 5
20 9 10 8 14 -3 14 -8 0 -12 -4 -9 -9 3 -4 1 -8 -4 -8 -11 0 -52 43 -52 56 0
5 -9 15 -20 22 -11 6 -27 29 -37 50 -24 53 -26 59 -13 42 10 -12 11 -11 7 7
-3 12 -2 22 2 21 18 -2 21 4 11 25 -9 17 -6 15 10 -6 12 -15 27 -24 32 -21 6
4 8 3 5 -3 -7 -11 28 -45 37 -36 6 6 10 -13 7 -30 -1 -5 3 -5 9 -2 6 4 9 13 6
21 -3 7 -1 16 3 19 5 3 8 -8 7 -24 -1 -17 1 -28 5 -25 4 2 10 -2 13 -8 3 -7 3
1 0 17 -3 24 -3 26 5 10 9 -19 12 -18 15 4 0 5 3 12 6 15 3 3 6 -16 5 -42 0
-34 -4 -46 -13 -44 -8 1 -11 -2 -7 -8 8 -14 32 4 38 28 2 9 4 5 2 -10 -1 -15
1 -25 4 -24 10 6 30 -21 23 -30 -4 -5 2 -1 14 9 19 15 23 16 33 3 7 -8 9 -21
5 -27 -5 -8 -3 -9 5 -5 7 5 10 14 7 22 -7 17 10 19 18 2 3 -7 4 -4 1 8 -4 14
0 21 9 21 10 0 14 -9 11 -31 l-4 -31 18 22 c10 12 21 19 25 16 3 -3 1 -12 -5
-19 -7 -8 -6 -14 2 -20 7 -4 9 -3 6 3 -4 6 2 18 12 27 13 12 21 14 26 6 9 -15
35 7 34 29 0 12 -2 11 -9 -4 l-9 -20 -1 20 -1 20 -9 -20 -9 -20 -1 20 -1 20
-9 -20 -9 -20 -1 20 -1 20 -9 -20 c-6 -17 -9 -14 -15 18 -4 21 -5 41 -1 44 3
4 6 -7 6 -23 0 -19 3 -25 9 -16 8 13 7 34 -3 80 -3 13 -1 20 5 17 5 -4 7 -10
4 -15 -3 -4 7 -23 22 -42 20 -25 22 -28 5 -14 -12 11 -22 15 -22 10 1 -13 23
-39 38 -41 18 -4 15 27 -5 49 -16 18 -30 58 -15 43 4 -4 7 -11 7 -16 0 -5 5
-8 10 -7 6 2 9 7 7 13 -2 5 5 2 16 -8 10 -9 23 -14 27 -10 5 5 4 1 -2 -7 -8
-10 -9 -21 -3 -30 8 -13 10 -12 10 3 0 9 4 17 9 17 5 0 8 11 5 24 -2 14 0 27
6 31 6 4 7 -1 3 -11 -5 -13 -3 -15 8 -9 11 6 11 5 2 -5 -9 -10 -8 -18 5 -38
12 -19 13 -24 3 -18 -10 7 -12 5 -6 -4 5 -8 4 -11 -3 -6 -6 4 -8 14 -5 23 4
11 3 14 -6 9 -7 -5 -10 -15 -6 -24 3 -9 3 -13 -1 -9 -4 4 -14 1 -22 -6 -9 -6
-13 -7 -10 -2 4 6 3 17 -3 25 -7 12 -9 11 -9 -5 0 -11 5 -27 10 -35 6 -10 4
-21 -8 -35 -17 -20 -17 -20 5 -2 13 12 19 25 16 35 -4 10 11 -1 33 -24 21 -22
38 -38 37 -36 -2 3 2 11 8 18 8 10 6 12 -10 9 -13 -2 -26 4 -35 17 -16 22 -12
43 5 32 5 -3 7 -9 4 -14 -3 -5 -1 -12 5 -15 6 -4 9 -1 8 7 -2 7 3 12 10 10 8
-1 11 2 8 7 -3 5 1 14 10 21 13 12 14 10 10 -15 -3 -15 -2 -24 2 -20 4 3 7 10
7 13 1 4 5 18 9 31 5 14 4 27 -2 33 -8 8 -9 4 -6 -13 4 -22 3 -22 -5 -4 l-10
20 -1 -20 c-1 -18 -2 -18 -11 3 -5 13 -13 21 -19 17 -6 -3 -7 1 -4 10 4 8 -1
27 -10 43 l-17 27 20 -24 c12 -13 21 -31 21 -40 0 -14 2 -14 10 -1 5 9 5 19 0
25 -7 8 -5 12 5 12 8 0 12 -3 10 -7 -2 -3 5 -12 16 -18 17 -11 20 -10 17 4 -2
9 4 19 12 21 13 4 13 3 0 -6 -11 -8 -12 -11 -2 -11 7 0 10 -4 7 -10 -3 -5 -2
-10 3 -10 17 0 19 58 3 77 -15 16 -15 16 5 0 15 -13 19 -25 16 -48 -3 -22 -1
-30 7 -25 6 4 9 11 6 16 -3 4 -1 19 4 32 8 18 10 19 10 5 1 -10 5 -16 10 -13
12 8 6 42 -7 39 -11 -3 -10 22 2 34 4 4 6 1 4 -7 -2 -8 3 -14 9 -13 7 2 12 0
11 -5 -4 -11 28 -53 35 -45 4 3 1 13 -5 21 -13 15 -21 49 -10 37 4 -4 7 -12 7
-18 1 -7 6 -11 13 -10 7 2 11 0 9 -5 -1 -4 3 -9 8 -10 17 -6 35 -24 35 -36 0
-6 -5 -4 -10 4 -9 13 -10 13 -10 0 0 -13 -1 -13 -10 0 -9 13 -10 13 -10 0 0
-12 -2 -13 -9 -1 -7 11 -10 9 -16 -9 -5 -16 -9 -19 -15 -10 -6 9 -10 6 -15
-10 -6 -18 -9 -20 -16 -9 -7 12 -9 11 -9 -1 0 -13 -1 -13 -10 0 -9 13 -10 13
-10 0 0 -13 -1 -13 -10 0 -6 9 -10 10 -10 3 0 -6 -9 -10 -20 -8 -17 3 -18 1
-11 -14 7 -12 6 -22 -2 -32 -7 -7 -3 -6 9 4 16 13 23 14 33 4 7 -6 12 -7 11
-2 -2 6 -2 17 -1 25 1 13 3 13 10 0 6 -8 7 -18 5 -22 -3 -5 0 -7 8 -6 7 2 12
-3 10 -10 -1 -8 2 -11 7 -8 12 8 33 -18 23 -29 -4 -5 -1 -5 6 -1 9 6 10 11 3
20 -6 7 -7 16 -3 20 4 4 2 6 -3 4 -6 -2 -10 2 -10 7 0 6 4 9 8 7 5 -1 6 2 2 8
-5 8 -11 8 -19 1 -13 -11 -26 -5 -26 11 0 5 5 6 10 3 6 -3 13 1 16 10 6 13 9
12 23 -7 9 -13 16 -31 16 -40 0 -9 7 -23 15 -30 12 -11 12 -11 4 2 -14 21 -11
66 5 62 7 -1 10 2 6 8 -5 8 -11 8 -19 1 -13 -11 -26 -5 -26 11 0 5 5 6 10 3 6
-3 13 1 16 10 6 13 9 12 23 -7 9 -13 16 -26 17 -30 1 -5 3 -11 4 -15 1 -5 2
-12 1 -16 -1 -5 3 -6 9 -2 8 5 7 12 -2 22 -16 20 -16 16 2 39 14 17 13 18 -1
7 -16 -13 -29 -8 -29 9 0 5 4 7 9 3 5 -3 12 -1 16 4 3 6 16 1 30 -11 13 -12
22 -26 18 -31 -4 -6 -1 -7 6 -3 7 5 21 0 33 -11 11 -10 23 -17 26 -16 4 2 7
-3 7 -11 0 -24 68 -76 90 -69 17 5 18 4 7 -10 -9 -10 -10 -17 -2 -22 5 -3 10
-3 10 2 0 4 7 -3 16 -15 13 -18 19 -21 30 -11 8 6 14 18 14 26 0 8 5 11 11 8
7 -5 5 -15 -5 -30 -12 -17 -13 -26 -4 -31 6 -4 9 -3 5 2 -7 13 15 40 33 39 8
0 16 -6 16 -12 1 -7 3 -16 4 -20 1 -5 2 -12 1 -16 -1 -5 3 -6 9 -2 6 3 7 12 3
18 -11 18 -12 36 -2 43 8 5 13 -10 10 -29 -1 -5 3 -6 8 -3 5 4 13 1 17 -5 5
-9 15 -3 32 17 17 20 22 23 18 9 -4 -11 -4 -16 0 -12 11 10 34 -12 28 -28 -3
-7 -1 -16 5 -20 7 -4 8 1 4 12 -6 16 -5 16 10 4 9 -7 14 -18 10 -24 -3 -6 -1
-7 6 -3 6 4 9 11 6 16 -3 5 -1 11 5 15 6 4 8 10 5 15 -3 5 -1 11 5 15 5 3 10
14 9 23 0 14 -2 14 -10 -3 -8 -16 -8 -15 -4 8 4 19 2 26 -5 22 -5 -3 -10 -16
-11 -28 -1 -20 -2 -20 -8 3 -4 14 -13 24 -19 23 -7 -2 -12 3 -12 10 0 8 -4 7
-10 -3 -8 -13 -10 -12 -10 3 0 9 5 17 11 17 5 0 7 5 4 10 -9 14 -35 -6 -31
-23 1 -7 1 -8 -2 -4 -2 4 -15 1 -28 -8 -13 -8 -24 -13 -24 -9 0 4 -6 1 -14 -5
-11 -9 -15 -9 -19 1 -4 11 -6 10 -6 0 -1 -8 -6 -10 -13 -5 -25 15 -39 11 -49
-15 -10 -26 -11 -26 -24 -8 -8 10 -11 24 -8 29 4 6 10 2 14 -9 7 -17 8 -17 8
-1 1 9 5 17 10 17 5 0 12 8 14 18 4 16 5 16 6 -1 0 -10 6 -15 11 -12 6 4 8 11
5 16 -9 14 -15 53 -7 45 4 -4 8 -12 8 -17 1 -5 2 -13 3 -18 1 -11 20 -9 39 3
11 6 11 11 0 24 -11 15 -11 15 3 5 9 -7 20 -9 25 -5 5 4 1 -3 -9 -15 -11 -12
-14 -24 -9 -27 6 -3 12 1 16 9 3 8 11 15 18 14 10 0 10 -2 1 -6 -7 -2 -13 -9
-13 -14 0 -6 8 -5 20 1 11 6 18 15 15 21 -4 5 -1 8 6 7 7 -2 14 3 15 10 1 6 3
15 4 20 1 4 2 11 1 15 -1 5 3 6 9 2 8 -5 8 -11 0 -20 -7 -9 -7 -15 -1 -19 5
-4 15 2 21 11 10 16 11 16 6 1 -3 -10 -1 -20 4 -23 6 -4 10 2 11 12 0 12 4 9
11 -10 5 -15 14 -24 19 -21 6 3 5 12 -3 22 -17 23 29 -14 60 -47 12 -13 22
-21 22 -17 0 4 20 -14 45 -41 47 -51 54 -52 31 -8 -8 15 -16 21 -18 14 -3 -9
-7 -7 -11 5 -5 11 -3 15 5 10 8 -5 9 -2 5 9 -3 9 -1 19 5 23 6 4 8 3 5 -2 -3
-6 -2 -16 4 -24 7 -13 9 -12 10 3 5 61 7 78 9 85 1 4 2 11 1 15 -1 5 3 6 9 2
6 -3 7 -12 3 -18 -11 -18 -12 -36 -2 -43 5 -3 9 4 9 15 0 11 4 22 9 25 5 4 7
-2 5 -12 -3 -9 0 -28 6 -42 10 -23 10 -22 5 10 -3 22 -2 30 4 21 7 -11 9 -11
14 0 4 11 6 11 6 0 1 -11 5 -10 16 5 10 12 13 14 10 3 -5 -12 1 -15 27 -14 18
1 33 6 33 12 0 6 3 15 7 19 4 3 6 -2 4 -13 -3 -11 0 -26 5 -34 7 -12 9 -12 10
1 1 8 1 18 0 22 0 6 7 6 44 -2 20 -4 36 0 31 8 -3 5 1 9 9 9 11 0 12 -4 4 -14
-6 -7 -8 -13 -4 -13 4 0 2 -7 -5 -15 -7 -8 -10 -24 -7 -35 3 -11 0 -23 -5 -27
-7 -4 -8 -1 -3 7 6 9 4 11 -5 5 -9 -5 -11 -4 -6 4 11 17 -2 63 -15 56 -7 -5
-6 -11 1 -21 7 -7 10 -19 7 -26 -3 -8 -6 -5 -7 7 l-1 20 -9 -20 c-7 -16 -9
-17 -9 -3 -1 9 -6 20 -12 24 -8 4 -9 -1 -4 -17 5 -19 4 -21 -4 -9 -10 13 -11
13 -11 0 0 -13 -1 -13 -10 0 -8 12 -10 12 -10 1 0 -8 -3 -12 -6 -9 -3 4 0 16
6 28 6 12 9 24 6 27 -3 3 -10 -5 -16 -18 -10 -23 -10 -23 -6 -1 2 12 -1 22 -6
22 -6 0 -8 -13 -4 -32 4 -24 3 -29 -4 -18 -5 8 -10 23 -10 33 0 10 -4 15 -10
12 -14 -9 11 -54 51 -90 18 -16 28 -23 21 -14 -6 9 -8 19 -4 23 4 4 2 6 -3 4
-6 -1 -11 1 -13 6 -1 6 4 11 13 12 8 1 16 -2 16 -7 1 -5 2 -13 3 -18 0 -5 4
-13 8 -16 4 -4 5 5 2 20 -4 24 -3 26 10 16 8 -6 13 -23 11 -36 -1 -14 2 -22 7
-19 5 3 7 12 4 20 -3 7 -1 16 4 19 6 4 11 1 11 -4 1 -6 2 -15 3 -20 0 -6 7
-16 15 -23 12 -11 12 -10 5 2 -5 8 -10 23 -11 34 -3 16 -1 17 12 6 8 -7 13
-16 10 -20 -3 -5 -1 -11 5 -15 6 -4 7 -11 4 -17 -4 -7 -2 -8 5 -4 6 4 8 13 4
19 -11 18 -12 36 -2 43 5 3 10 0 10 -5 3 -26 4 -30 11 -36 4 -4 5 5 2 20 -4
25 -3 27 10 15 9 -7 13 -17 9 -23 -3 -5 -1 -7 5 -4 10 7 11 23 1 42 -2 6 -4
21 -3 35 1 14 2 58 3 98 0 40 5 71 10 68 5 -3 15 2 22 12 13 15 12 16 -3 4
-11 -9 -18 -10 -23 -2 -3 5 -2 10 4 10 5 0 8 9 6 19 -2 11 5 27 16 36 10 10
16 22 12 28 -4 6 -1 7 7 2 9 -5 10 -2 6 12 -4 12 1 29 12 44 11 13 18 32 16
41 -1 10 2 20 6 23 5 3 7 -3 5 -15 -2 -11 0 -22 6 -25 5 -4 10 -1 10 4 5 41 4
57 -3 67 -4 6 -2 11 6 11 8 0 13 -8 11 -18 -2 -10 0 -21 6 -24 9 -6 13 7 10
31 -1 6 6 17 14 24 8 7 15 17 15 23 0 5 -8 3 -18 -6 -16 -15 -19 -15 -19 -2 0
8 3 13 5 10 7 -7 32 15 32 27 0 6 -8 4 -17 -3 -16 -13 -17 -12 -4 3 15 20 30
15 29 -10 0 -9 3 -27 6 -39 13 -50 15 -63 6 -58 -4 3 -6 -5 -4 -17 4 -22 4
-22 -6 -3 -9 17 -9 16 -7 -10 2 -16 2 -24 0 -17 -3 8 -12 0 -23 -20 -10 -18
-16 -36 -13 -40 2 -4 -3 -5 -11 -2 -11 4 -14 -1 -12 -20 1 -14 7 -29 12 -34 5
-4 6 -3 2 2 -10 12 11 48 23 41 5 -4 9 -3 8 2 -4 15 13 43 22 37 5 -3 9 -2 8
3 -1 4 -1 17 1 28 l1 20 10 -20 c7 -15 8 -11 4 15 l-6 35 16 -25 c15 -23 15
-19 2 20 -1 3 3 6 8 8 6 1 10 -3 10 -10 0 -6 6 -12 13 -14 7 -1 8 0 2 3 -7 3
-6 11 5 23 11 12 13 20 5 25 -8 5 -8 11 1 21 10 13 14 12 30 -2 16 -14 17 -20
6 -33 -10 -14 -10 -14 4 -4 9 7 20 10 25 6 5 -4 -9 11 -31 35 -21 23 -40 42
-41 42 -1 0 -1 -8 1 -17 4 -30 -9 -39 -17 -13 -7 24 -8 24 -4 -3 2 -15 -1 -30
-5 -33 -5 -3 -10 10 -10 28 l-2 33 -7 -35 c-6 -30 -8 -31 -10 -10 -2 14 -2 42
-2 63 1 39 -19 67 -154 222 -25 28 -25 28 1 -4z m126 -178 c13 -16 17 -22 9
-16 -11 10 -18 9 -34 -5 -21 -17 -21 -17 -4 4 14 16 15 23 6 32 -7 7 -10 12
-7 12 3 0 16 -12 30 -27z m83 -134 c-3 -5 -10 -7 -15 -3 -5 3 -7 10 -3 15 3 5
10 7 15 3 5 -3 7 -10 3 -15z m-2613 -46 c12 -16 12 -17 -2 -6 -9 7 -20 9 -24
5 -5 -4 -5 -1 -1 6 9 16 11 15 27 -5z m-106 -12 c3 -5 2 -12 -3 -15 -5 -3 -9
1 -9 9 0 17 3 19 12 6z m160 -1 c-3 -5 -1 -10 5 -10 16 0 80 -53 80 -66 0 -6
-6 -11 -12 -12 -45 -4 -71 -19 -64 -38 6 -15 -10 -29 -34 -29 -21 0 -41 -15
-35 -25 3 -5 1 -11 -5 -15 -6 -4 -7 -11 -4 -17 4 -7 2 -8 -5 -4 -6 4 -14 0
-17 -8 -3 -9 -11 -13 -17 -9 -6 4 -3 11 8 19 15 11 15 15 3 33 -8 12 -18 18
-21 15 -4 -4 -9 1 -13 10 -3 9 -10 14 -14 11 -4 -3 -13 2 -20 10 -7 8 -17 12
-24 8 -6 -3 -8 -2 -3 2 4 5 -1 18 -10 29 -10 12 -11 16 -4 9 11 -10 17 -9 28
5 13 15 13 15 3 -5 -9 -20 -8 -28 4 -20 2 1 13 -6 23 -16 19 -17 21 -16 50 18
17 19 34 35 38 35 5 0 5 -3 2 -7 -4 -3 -2 -12 4 -19 13 -16 4 -48 -11 -39 -5
3 -10 1 -10 -6 0 -7 8 -9 23 -4 12 4 30 7 39 8 9 1 14 5 11 10 -3 5 -11 6 -18
3 -8 -3 -15 8 -19 32 -7 45 0 55 9 13 8 -36 30 -41 39 -9 6 25 -8 46 -18 29
-4 -6 -3 -11 3 -11 6 0 8 -7 4 -17 -5 -14 -8 -13 -15 7 -5 13 -7 24 -6 25 49
33 53 37 32 32 -16 -3 -21 0 -19 12 5 22 4 21 11 21 3 0 2 -4 -1 -10z m-60
-12 c5 4 5 1 1 -6 -6 -10 -11 -10 -22 -1 -8 6 -14 14 -14 16 0 3 6 0 13 -6 8
-6 18 -7 22 -3z m32 -8 c-1 -10 -3 -17 -6 -15 -2 3 -12 -2 -22 -11 -13 -12
-19 -12 -25 -3 -4 7 -3 10 4 5 6 -3 19 5 29 18 22 31 22 31 20 6z m-73 -11
c-3 -5 -10 -7 -15 -3 -5 3 -7 10 -3 15 3 5 10 7 15 3 5 -3 7 -10 3 -15z m2566
-9 c-6 -11 -13 -20 -16 -20 -2 0 0 9 6 20 6 11 13 20 16 20 2 0 0 -9 -6 -20z
m-2620 -6 c0 -8 -19 -13 -24 -6 -3 5 1 9 9 9 8 0 15 -2 15 -3z m26 -18 c1 -7
-4 -13 -12 -13 -9 0 -11 4 -4 12 5 7 8 15 5 18 -3 4 -2 5 2 2 4 -3 8 -11 9
-19z m564 20 c0 -2 -8 -10 -17 -17 -16 -13 -17 -12 -4 4 13 16 21 21 21 13z
m-526 -27 c-3 -5 -10 -7 -15 -3 -5 3 -7 10 -3 15 3 5 10 7 15 3 5 -3 7 -10 3
-15z m546 7 c0 -2 -8 -10 -17 -17 -16 -13 -17 -12 -4 4 13 16 21 21 21 13z
m-365 -36 c-17 -19 -41 -18 -29 1 3 5 10 7 15 4 5 -4 12 1 15 10 4 9 9 13 12
10 3 -2 -3 -14 -13 -25z m-206 -7 c-6 -7 -15 -10 -20 -7 -13 8 -3 21 15 21 12
0 13 -4 5 -14z m592 -10 c13 -16 12 -17 -3 -4 -17 13 -22 21 -14 21 2 0 10 -8
17 -17z m479 13 c0 -2 -8 -10 -17 -17 -16 -13 -17 -12 -4 4 13 16 21 21 21 13z
m122 -20 c3 3 9 -1 14 -8 4 -7 4 -10 -1 -6 -4 4 -15 2 -24 -4 -9 -7 -13 -8 -8
-3 4 4 -1 18 -10 29 -18 21 -18 21 3 3 11 -9 23 -14 26 -11z m-627 5 c3 -5 2
-12 -3 -15 -5 -3 -9 1 -9 9 0 17 3 19 12 6z m-658 -28 c0 -9 -4 -10 -12 -3 -7
5 -14 7 -17 4 -3 -3 -8 -1 -11 3 -3 5 5 9 17 9 12 0 23 -6 23 -13z m648 -27
l36 -34 -16 -39 c-31 -74 -50 -76 -108 -15 l-28 29 22 47 c28 56 45 58 94 12z
m370 15 c3 -5 2 -12 -3 -15 -5 -3 -9 1 -9 9 0 17 3 19 12 6z m-510 -21 c-3 -5
-1 -11 5 -15 9 -6 14 8 11 28 -1 5 3 6 9 2 7 -4 7 -13 -1 -27 -8 -15 -14 -17
-22 -9 -13 13 -19 43 -6 35 5 -3 7 -9 4 -14z m485 6 c0 -2 -8 -10 -17 -17 -16
-13 -17 -12 -4 4 13 16 21 21 21 13z m-472 -59 c12 -11 22 -26 22 -33 0 -22
-33 -84 -45 -84 -19 0 -95 54 -95 67 0 7 10 33 22 58 22 45 22 45 47 29 14 -9
36 -26 49 -37z m427 44 c3 -5 2 -12 -3 -15 -5 -3 -9 1 -9 9 0 17 3 19 12 6z
m-995 -7 c0 -8 -19 -13 -24 -6 -3 5 1 9 9 9 8 0 15 -2 15 -3z m960 1 c0 -2 -6
-8 -13 -14 -10 -8 -14 -7 -14 2 0 8 6 14 14 14 7 0 13 -1 13 -2z m107 -2 c-4
-3 -3 -11 2 -17 13 -17 20 -81 10 -97 -7 -11 -9 -10 -7 6 0 11 0 36 -2 55 l-3
35 -7 -35 -8 -35 1 40 c1 42 4 55 14 55 4 0 3 -3 0 -7z m-931 -25 c-3 -13 -5
-27 -5 -31 -1 -5 -5 -6 -11 -2 -6 3 -5 15 2 30 14 31 19 32 14 3z m-121 -7
c-3 -6 -11 -11 -16 -11 -5 0 -4 6 3 14 14 16 24 13 13 -3z m986 -29 l1 -27 8
30 8 30 2 -30 2 -30 8 30 c7 28 8 29 9 5 1 -33 -18 -54 -35 -39 -8 7 -14 7
-19 -1 -11 -18 -35 9 -34 39 1 25 2 25 9 -4 7 -29 8 -29 9 -4 2 48 30 49 32 1z
m272 24 c3 -8 -2 -20 -11 -27 -14 -11 -15 -11 -5 0 6 7 9 20 6 27 -3 8 -3 14
0 14 3 0 7 -6 10 -14z m-1275 -41 c-3 -3 -9 2 -12 12 -6 14 -5 15 5 6 7 -7 10
-15 7 -18z m1783 -28 c1 4 1 11 1 14 -1 3 6 6 13 6 10 0 11 -4 6 -11 -5 -6
-10 -14 -10 -18 -1 -5 -3 -7 -5 -5 -2 1 -14 -7 -27 -18 -15 -13 -19 -14 -11
-3 14 18 1 34 -22 25 -7 -3 -20 3 -29 13 -14 17 -14 19 3 17 10 0 16 -6 14
-12 -2 -5 7 -10 21 -10 14 0 23 5 21 10 -2 6 -8 9 -13 8 -5 -1 -10 5 -10 14 0
12 7 9 24 -11 13 -15 24 -23 24 -19z m-1837 15 c3 -5 -1 -9 -9 -9 -8 0 -12 4
-9 9 3 4 7 8 9 8 2 0 6 -4 9 -8z m2572 -17 c-1 -8 -8 -21 -14 -27 -18 -18 -14
-32 4 -17 21 17 52 23 35 6 -15 -15 -14 -30 2 -21 6 4 9 4 5 -1 -4 -4 -2 -15
5 -23 10 -13 9 -14 -3 -7 -20 13 -32 13 -47 2 -7 -5 -13 -8 -14 -6 -7 31 -4
57 9 72 8 9 12 17 8 17 -4 0 -4 5 -1 10 9 14 14 12 11 -5z m29 6 c3 -5 2 -12
-3 -15 -5 -3 -9 1 -9 9 0 17 3 19 12 6z m-345 -5 c0 -2 -8 -10 -17 -17 -16
-13 -17 -12 -4 4 13 16 21 21 21 13z m-2225 -14 c-3 -3 0 -11 7 -19 8 -11 8
-17 -2 -26 -10 -9 -11 -9 -5 1 4 8 0 21 -9 31 -14 15 -14 18 -1 18 8 0 13 -3
10 -5z m112 -16 c-4 -10 -1 -13 7 -10 23 9 27 -12 7 -30 -21 -19 -32 -11 -26
20 2 10 4 22 4 27 1 4 4 7 7 7 3 0 4 -7 1 -14z m1905 -21 c5 -18 6 -17 8 5 l2
25 7 -25 c4 -14 13 -24 18 -23 11 2 12 -22 1 -32 -3 -3 -19 10 -36 31 l-30 36
-17 -26 c-19 -28 -29 -27 -46 6 -7 13 -7 18 -1 14 6 -3 13 -2 17 4 11 18 69 7
77 -15z m-2041 2 c-6 -8 -9 -16 -6 -19 3 -2 -2 -5 -10 -5 -13 0 -13 3 2 19 19
21 31 25 14 5z m769 -42 c30 -30 52 -55 49 -55 -2 0 -29 25 -59 55 -30 30 -52
55 -49 55 2 0 29 -25 59 -55z m-668 -27 c-7 -7 -12 -8 -12 -2 0 6 3 14 7 17 3
4 9 5 12 2 2 -3 -1 -11 -7 -17z m-112 -4 c0 -8 -19 -13 -24 -6 -3 5 1 9 9 9 8
0 15 -2 15 -3z m904 -30 c3 -8 2 -12 -4 -9 -6 3 -10 10 -10 16 0 14 7 11 14
-7z m-94 -10 c0 -8 -19 -13 -24 -6 -3 5 1 9 9 9 8 0 15 -2 15 -3z m45 -4 c3
-5 1 -10 -4 -10 -6 0 -11 5 -11 10 0 6 2 10 4 10 3 0 8 -4 11 -10z m22 -62
c-2 -7 2 -25 9 -39 12 -24 11 -28 -13 -50 l-26 -24 6 31 c7 39 -1 49 -23 29
-15 -14 -19 -13 -36 7 -12 13 -13 18 -4 13 28 -17 40 -14 62 16 23 31 33 37
25 17z m188 -423 c0 -23 -4 -41 -9 -38 -4 3 -5 20 -2 37 5 28 4 29 -8 13 -14
-18 -11 -46 5 -57 4 -3 -1 -23 -10 -44 -10 -21 -21 -34 -25 -28 -3 6 1 18 10
26 12 12 12 16 2 17 -10 0 -10 2 0 6 6 2 12 9 12 14 0 6 -6 7 -12 2 -21 -12
-39 -12 -31 0 5 8 2 8 -9 0 -8 -7 -18 -10 -22 -6 -4 4 -4 -1 -1 -12 6 -16 5
-17 -4 -5 -9 13 -11 13 -11 0 0 -12 -2 -12 -9 -2 -7 11 -10 10 -15 -3 -3 -9
-3 -22 1 -27 4 -7 1 -8 -7 -3 -9 6 -11 4 -5 -5 6 -10 12 -9 24 6 9 11 22 19
29 19 13 0 17 -14 5 -16 -16 -1 -43 -33 -43 -50 0 -10 -5 -21 -10 -24 -6 -4
-9 3 -6 17 2 13 -1 32 -7 42 -9 19 -10 19 -23 1 -10 -14 -14 -15 -14 -4 -1 10
-3 10 -11 -3 -5 -10 -9 -19 -8 -20 1 -2 -3 -13 -10 -26 -12 -23 -13 -23 -32
-6 -11 10 -17 25 -14 33 3 10 0 9 -10 -3 -10 -13 -15 -15 -15 -6 0 9 -5 7 -14
-6 -14 -18 -15 -18 -21 -1 -7 17 -8 17 -21 0 -7 -10 -14 -14 -14 -9 0 5 -6 3
-14 -3 -10 -9 -16 -9 -21 -1 -5 8 -10 8 -20 0 -10 -8 -15 -8 -20 0 -5 8 -10 8
-20 0 -9 -7 -15 -7 -19 -1 -4 5 -15 8 -26 6 -11 -2 -24 4 -30 13 -7 13 -9 14
-10 3 0 -11 -4 -10 -16 5 -13 16 -15 16 -10 2 3 -10 1 -20 -5 -23 -5 -4 -6
-11 -3 -17 4 -6 2 -8 -4 -4 -7 4 -8 17 -2 35 4 16 6 32 3 35 -3 3 4 4 16 1 11
-2 22 0 22 6 1 5 2 13 3 18 0 5 4 13 8 17 8 8 2 -31 -7 -45 -3 -5 -1 -12 5
-16 5 -3 10 2 11 12 0 16 1 16 9 -2 6 -13 9 -15 9 -5 1 13 2 13 12 0 9 -12 10
-11 6 7 -3 13 0 26 5 30 6 3 9 2 6 -3 -4 -5 0 -22 8 -39 l14 -30 -5 30 c-4 22
-3 26 5 15 5 -8 10 -13 11 -10 6 34 8 43 14 48 4 4 6 0 4 -8 -2 -8 5 -28 15
-45 13 -24 16 -25 13 -8 -3 13 0 21 6 20 6 -1 11 3 12 10 0 7 7 18 15 25 12
11 12 11 2 -3 -6 -9 -9 -19 -5 -23 4 -4 13 4 21 16 12 21 12 17 -4 -29 -4 -12
1 -9 14 6 11 14 19 33 17 43 -2 10 0 20 4 23 5 2 8 -3 7 -13 0 -9 4 -17 9 -17
6 0 9 4 7 9 -2 5 4 4 12 -3 9 -7 14 -16 12 -20 -3 -4 -1 -13 5 -21 6 -11 9 -8
9 12 0 15 -4 30 -10 33 -5 3 -10 12 -10 18 0 7 5 4 11 -6 10 -18 11 -18 32 0
11 10 18 13 14 7 -3 -6 0 -20 8 -30 13 -18 14 -18 11 6 -1 14 -5 31 -9 37 -4
6 -3 15 3 18 6 4 9 3 8 -2 -2 -4 2 -8 7 -8 6 0 9 8 9 17 -1 9 4 16 10 15 6 -1
10 3 9 9 -1 6 5 11 13 11 11 0 11 -4 -3 -19 -20 -22 -25 -46 -12 -54 8 -5 13
8 11 28 -1 3 6 12 15 20 14 11 16 11 8 -2 -11 -18 -17 -50 -10 -50 3 0 10 10
15 23 7 18 9 18 9 4 1 -10 5 -15 11 -12 6 4 4 17 -5 35 -10 19 -11 31 -5 35 6
4 9 3 8 -2 -4 -16 14 -53 23 -47 5 3 6 11 2 17 -10 16 -13 41 -5 32 4 -4 7
-11 7 -16 0 -5 5 -9 10 -9 6 0 10 4 10 9 0 5 3 13 7 17 4 4 2 14 -5 23 -10 14
-10 14 4 4 9 -7 20 -9 25 -5 5 4 1 -2 -9 -14 -9 -11 -14 -23 -11 -27 4 -3 15
4 24 16 14 17 16 26 7 37 -9 13 -9 13 3 2 9 -8 15 -31 15 -57z m36 1 c9 5 19
-11 23 -40 1 -8 6 -19 11 -23 4 -4 5 -3 1 4 -3 6 -1 15 5 18 7 5 10 1 7 -10
-1 -10 -11 -19 -21 -21 -14 -2 -18 2 -14 17 3 10 1 17 -3 14 -4 -3 -6 5 -4 17
2 13 1 16 -2 8 -4 -8 -13 -22 -21 -32 -11 -12 -11 -18 -2 -24 7 -4 10 -3 5 4
-3 6 -1 14 5 17 7 5 10 1 7 -10 -4 -21 -38 -30 -38 -10 0 8 5 17 10 20 6 4 8
10 5 15 -3 5 -2 22 2 37 5 20 8 23 11 10 2 -9 8 -15 13 -11z m-874 -30 c0 -15
-21 -16 -34 -1 -4 4 -3 5 4 1 6 -3 14 -2 18 4 8 14 12 13 12 -4z m607 -5 c3
-5 -2 -15 -12 -22 -15 -12 -16 -12 -5 2 7 9 10 19 6 22 -3 4 -4 7 0 7 3 0 8
-4 11 -9z m-148 -43 c5 4 5 3 1 -2 -12 -15 -34 -15 -34 0 0 9 4 11 12 4 7 -5
16 -6 21 -2z m314 0 c0 7 5 10 10 7 7 -4 4 -17 -7 -36 -25 -42 -39 -52 -39
-29 0 10 3 17 7 14 4 -2 12 3 18 10 8 10 9 16 1 21 -5 3 -10 12 -10 18 0 7 4
6 10 -3 7 -11 10 -11 10 -2z m-420 -2 c0 -2 -8 -10 -17 -17 -16 -13 -17 -12
-4 4 13 16 21 21 21 13z"/>
<path d="M3731 3511 c-10 -6 -10 -10 -1 -16 6 -4 9 -13 6 -20 -3 -8 2 -12 12
-11 9 2 18 9 20 17 3 11 1 11 -8 -1 -10 -12 -11 -11 -7 7 6 26 -3 35 -22 24z"/>
<path d="M3617 3432 c-15 -16 -27 -32 -27 -38 0 -5 8 0 16 11 11 14 15 15 13
5 -3 -18 10 -50 20 -50 4 0 8 7 8 15 0 8 -4 12 -9 9 -10 -6 -11 17 -2 41 5 13
8 14 15 3 7 -10 9 -9 9 4 0 29 -16 29 -43 0z"/>
<path d="M4439 3292 c-3 -20 -2 -29 4 -23 5 5 7 19 5 32 -3 20 -5 19 -9 -9z"/>
<path d="M5973 3198 c-6 -7 -14 -20 -18 -28 -7 -12 -6 -13 7 -3 8 7 17 11 19
8 3 -2 5 5 5 15 0 24 -1 24 -13 8z"/>
<path d="M5374 3199 c-8 -14 14 -19 25 -6 8 10 7 14 -5 14 -8 0 -17 -4 -20 -8z"/>
<path d="M4256 2991 c-3 -5 1 -14 9 -21 12 -10 13 -16 3 -29 -12 -14 -11 -14
5 -2 16 12 16 16 2 31 -8 9 -12 20 -8 23 3 4 4 7 0 7 -3 0 -8 -4 -11 -9z"/>
<path d="M4390 2563 c-14 -16 -18 -22 -11 -16 11 9 18 10 28 2 9 -9 14 -7 19
6 12 31 -11 36 -36 8z m27 2 c0 -8 -4 -12 -9 -9 -5 3 -6 10 -3 15 9 13 12 11
12 -6z"/>
<path d="M4279 2538 c-6 -14 -3 -55 4 -51 4 3 6 12 3 20 -3 8 -1 11 4 8 6 -3
10 -2 10 4 0 9 -18 26 -21 19z"/>
<path d="M4306 2515 c-9 -26 -7 -32 5 -12 6 10 9 21 6 23 -2 3 -7 -2 -11 -11z"/>
<path d="M4227 2513 c-4 -3 -7 -16 -7 -28 0 -11 -5 -26 -10 -31 -8 -8 -6 -15
6 -25 10 -8 15 -9 11 -2 -4 6 -3 14 3 18 21 13 28 40 16 57 -7 10 -16 15 -19
11z m13 -43 c-6 -10 -15 -22 -21 -26 -6 -3 -4 5 5 18 9 14 13 28 9 33 -5 4 -2
5 5 1 9 -5 9 -13 2 -26z"/>
<path d="M4175 2490 c-3 -5 -4 -14 -1 -18 3 -5 -1 -9 -8 -9 -8 0 -12 7 -9 16
3 12 1 12 -10 -2 -9 -11 -13 -26 -10 -34 5 -12 7 -12 14 -1 5 7 14 13 21 13 7
0 14 10 14 23 1 24 -2 27 -11 12z"/>
<path d="M4025 2458 c-9 -22 4 -43 17 -30 7 7 7 16 0 29 -10 17 -11 17 -17 1z"/>
<path d="M4084 2455 c-4 -11 -9 -24 -11 -30 -3 -5 3 -1 11 9 11 13 16 15 16 6
0 -7 3 -11 6 -7 3 3 1 14 -4 24 -10 17 -11 17 -18 -2z"/>
<path d="M3980 2441 c0 -6 4 -13 10 -16 6 -3 7 1 4 9 -7 18 -14 21 -14 7z"/>
<path d="M4481 2574 c0 -11 3 -14 6 -6 3 7 2 16 -1 19 -3 4 -6 -2 -5 -13z"/>
<path d="M3852 3841 c-20 -53 -28 -61 -60 -72 -51 -16 -62 -27 -62 -59 0 -39
21 -52 94 -57 86 -7 151 4 183 31 l26 22 -28 28 c-23 23 -29 25 -43 14 -15
-11 -15 -11 -5 3 10 12 8 22 -13 52 -13 20 -33 41 -43 47 -11 5 -21 19 -23 31
-2 14 -10 1 -26 -40z m151 -126 c4 -8 3 -16 -1 -19 -4 -3 -9 4 -9 15 -2 23 3
25 10 4z m-28 -7 c5 4 5 1 1 -6 -6 -10 -11 -10 -22 -1 -8 6 -14 14 -14 16 0 3
6 0 13 -6 8 -6 18 -7 22 -3z"/>
<path d="M5755 3832 c-27 -15 -86 -54 -129 -87 l-80 -60 64 -3 c35 -2 97 4
138 13 72 16 208 67 226 85 23 23 -70 80 -131 80 -22 0 -58 -12 -88 -28z"/>
<path d="M4420 3789 c-14 -6 -47 -15 -74 -21 l-49 -10 48 -44 c26 -24 55 -44
64 -44 20 0 201 56 220 69 17 11 10 15 -75 40 -78 23 -97 25 -134 10z"/>
<path d="M5061 3772 c-1 -13 -9 -40 -18 -59 l-17 -36 -73 7 c-67 5 -73 4 -73
-13 0 -10 7 -22 16 -25 19 -7 115 -6 204 3 l65 6 -40 44 c-22 24 -45 56 -52
70 -11 26 -11 26 -12 3z"/>
<path d="M4113 3750 c2 -27 10 -41 45 -67 63 -48 68 -41 14 18 -26 28 -50 58
-54 67 -5 11 -7 4 -5 -18z"/>
<path d="M3380 3753 c-14 -2 -59 -13 -102 -24 -94 -24 -124 -24 -137 -1 -6 9
-11 12 -11 6 0 -16 45 -55 54 -47 4 5 6 3 5 -2 -5 -15 92 -116 104 -108 5 3 8
2 4 -3 -3 -5 1 -17 8 -27 13 -18 14 -17 20 2 9 31 80 120 133 169 l46 42 -49
-1 c-28 -1 -61 -4 -75 -6z m-103 -78 c0 -8 -4 -12 -9 -9 -5 3 -6 10 -3 15 9
13 12 11 12 -6z m-30 -20 c0 -8 -4 -12 -9 -9 -5 3 -6 10 -3 15 9 13 12 11 12
-6z m90 -2 c-4 -3 -2 -11 3 -18 7 -8 5 -12 -4 -12 -8 0 -12 7 -11 16 5 22 4
21 12 21 3 0 3 -3 0 -7z m-59 -28 c-3 -3 -9 2 -12 12 -6 14 -5 15 5 6 7 -7 10
-15 7 -18z m26 -7 c1 -7 6 -19 10 -27 7 -11 6 -12 -5 -5 -8 5 -17 9 -21 9 -3
0 -10 4 -15 8 -4 5 -1 7 7 5 10 -2 14 3 12 17 -2 11 -1 17 3 13 3 -3 7 -12 9
-20z"/>
<path d="M6183 3648 c-10 -12 -13 -27 -14 -70 0 -10 -5 -20 -10 -23 -5 -4 -6
-11 -3 -17 4 -7 2 -8 -5 -4 -9 6 -9 11 0 22 7 9 8 18 3 22 -5 4 -8 6 -7 3 5
-9 -19 -41 -27 -36 -13 8 -42 -39 -35 -56 3 -8 -5 -26 -17 -39 -22 -23 -35
-55 -18 -45 5 3 14 -3 20 -12 9 -14 10 -14 7 -2 -3 9 3 29 14 45 11 18 19 23
19 14 0 -9 -6 -23 -12 -30 -11 -13 -11 -13 1 -3 12 10 18 10 30 0 14 -10 14
-10 4 3 -18 23 -11 62 14 89 12 13 25 36 28 52 4 15 13 33 20 39 10 9 12 17 5
30 -5 9 -6 20 -3 24 3 3 4 6 1 6 -3 0 -10 -6 -15 -12z m12 -27 c3 -5 2 -12 -3
-15 -5 -3 -9 1 -9 9 0 17 3 19 12 6z m-65 -116 c-13 -14 -19 -29 -15 -36 5 -7
4 -10 -3 -5 -6 3 -18 -7 -28 -23 -10 -17 -21 -28 -25 -25 -4 2 3 16 17 31 14
15 23 32 20 40 -3 7 -1 15 5 18 5 4 6 11 3 17 -4 6 -2 8 4 4 6 -3 13 -2 17 4
4 6 11 8 16 4 6 -4 2 -16 -11 -29z"/>
<path d="M6114 3508 l-19 -23 23 19 c12 11 22 21 22 23 0 8 -8 2 -26 -19z"/>
<path d="M4881 3425 c1 -5 -1 -18 -6 -28 -6 -15 -10 -16 -16 -5 -6 9 -8 7 -7
-8 1 -11 8 -21 15 -21 12 0 17 11 14 31 -1 5 5 4 13 -4 20 -16 21 0 1 26 -8
10 -15 15 -14 9z"/>
<path d="M3817 3413 c-10 -9 -9 -23 1 -23 5 0 9 7 9 15 0 17 -1 18 -10 8z"/>
<path d="M4211 3389 c-5 -15 -5 -31 2 -44 6 -11 10 -24 9 -29 -2 -5 4 -3 13 4
14 12 16 12 13 -1 -1 -7 0 -14 4 -14 3 0 16 -9 29 -20 13 -11 19 -13 13 -5 -6
8 -10 27 -9 42 1 15 -2 25 -7 22 -4 -3 -8 1 -8 9 0 7 -11 24 -25 37 l-25 23
-9 -24z m52 -39 c15 -38 16 -47 3 -47 -6 0 -13 9 -14 19 -4 41 -6 47 -13 42
-5 -2 -6 -12 -3 -22 5 -14 3 -14 -10 2 -11 13 -12 23 -6 31 5 7 6 16 2 21 -4
4 1 2 12 -6 10 -8 23 -26 29 -40z"/>
<path d="M3840 3391 c0 -6 4 -13 10 -16 6 -3 7 1 4 9 -7 18 -14 21 -14 7z"/>
<path d="M6093 3385 c0 -8 4 -12 9 -9 5 3 6 10 3 15 -9 13 -12 11 -12 -6z"/>
<path d="M3251 3374 c0 -11 3 -14 6 -6 3 7 2 16 -1 19 -3 4 -6 -2 -5 -13z"/>
<path d="M3796 3368 c3 -5 10 -6 15 -3 13 9 11 12 -6 12 -8 0 -12 -4 -9 -9z"/>
<path d="M3713 3355 c0 -8 4 -15 9 -15 4 0 8 4 8 9 0 6 -4 12 -8 15 -5 3 -9
-1 -9 -9z"/>
<path d="M3765 3360 c-4 -6 -10 -8 -14 -6 -4 3 -8 -1 -8 -9 0 -13 4 -12 19 2
18 16 22 23 14 23 -3 0 -8 -5 -11 -10z"/>
<path d="M4746 3354 c-5 -13 -4 -14 7 -6 8 7 18 8 22 4 5 -4 5 -1 1 6 -10 17
-23 15 -30 -4z"/>
<path d="M3815 3351 c-3 -5 -2 -12 3 -15 5 -3 9 1 9 9 0 17 -3 19 -12 6z"/>
<path d="M3866 3348 c3 -5 10 -6 15 -3 13 9 11 12 -6 12 -8 0 -12 -4 -9 -9z"/>
<path d="M5009 3358 c-7 -23 -5 -39 6 -48 9 -8 15 -8 20 0 4 6 1 9 -7 8 -8 -2
-13 6 -12 20 1 18 -3 31 -7 20z"/>
<path d="M3783 3335 c0 -8 4 -12 9 -9 5 3 6 10 3 15 -9 13 -12 11 -12 -6z"/>
<path d="M4626 3341 c-4 -5 -2 -12 3 -15 5 -4 12 -2 15 3 4 5 2 12 -3 15 -5 4
-12 2 -15 -3z"/>
<path d="M3241 3324 c0 -11 3 -14 6 -6 3 7 2 16 -1 19 -3 4 -6 -2 -5 -13z"/>
<path d="M3840 3331 c0 -6 4 -13 10 -16 6 -3 7 1 4 9 -7 18 -14 21 -14 7z"/>
<path d="M3700 3321 c0 -7 -5 -9 -12 -5 -7 5 -8 3 -3 -5 5 -9 10 -10 18 -2 6
6 8 14 4 18 -4 3 -7 1 -7 -6z"/>
<path d="M4362 3310 c0 -14 2 -19 5 -12 2 6 2 18 0 25 -3 6 -5 1 -5 -13z"/>
<path d="M3544 3309 c-3 -6 -1 -16 4 -21 8 -8 11 -5 9 11 -1 24 -3 25 -13 10z"/>
<path d="M3755 3311 c-3 -5 -2 -12 3 -15 5 -3 9 1 9 9 0 17 -3 19 -12 6z"/>
<path d="M4954 3306 c1 -8 5 -18 8 -22 4 -3 5 1 4 10 -1 8 -5 18 -8 22 -4 3
-5 -1 -4 -10z"/>
<path d="M3664 3302 c7 -11 -6 -17 -27 -13 -5 1 -6 -3 -3 -8 4 -5 0 -12 -6
-14 -8 -3 -6 -6 5 -6 9 -1 17 4 17 9 0 6 7 10 15 10 18 0 20 16 3 26 -7 4 -8
3 -4 -4z"/>
<path d="M3803 3295 c0 -8 4 -12 9 -9 5 3 6 10 3 15 -9 13 -12 11 -12 -6z"/>
<path d="M4305 3288 c4 -9 14 -19 23 -23 9 -3 13 -3 9 1 -4 4 -1 14 6 23 10
14 10 14 -4 4 -12 -10 -18 -10 -28 0 -10 9 -11 9 -6 -5z"/>
<path d="M4809 3295 c-1 -3 -2 -8 -3 -12 -3 -17 -18 -33 -26 -28 -5 3 -12 0
-16 -7 -4 -7 -3 -10 1 -5 5 4 18 -1 29 -10 17 -15 19 -15 8 -1 -8 9 -9 19 -4
22 13 8 34 -18 24 -29 -4 -5 -1 -5 6 -1 11 7 11 11 -1 24 -8 10 -13 25 -12 35
3 15 -3 26 -6 12z"/>
<path d="M5035 3291 c-3 -5 -2 -12 3 -15 5 -3 9 1 9 9 0 17 -3 19 -12 6z"/>
<path d="M3726 3278 c3 -5 10 -6 15 -3 13 9 11 12 -6 12 -8 0 -12 -4 -9 -9z"/>
<path d="M4834 3273 c1 -7 8 -19 16 -26 12 -10 12 -9 2 4 -8 10 -8 19 -1 26 6
6 5 10 -5 10 -7 0 -13 -6 -12 -14z"/>
<path d="M3232 3260 c0 -14 2 -19 5 -12 2 6 2 18 0 25 -3 6 -5 1 -5 -13z"/>
<path d="M3683 3255 c0 -8 4 -12 9 -9 5 3 6 10 3 15 -9 13 -12 11 -12 -6z"/>
<path d="M4870 3255 c5 -7 6 -16 2 -21 -4 -5 -3 -5 2 -1 15 12 15 34 0 34 -9
0 -11 -4 -4 -12z"/>
<path d="M5453 3258 c0 -17 34 -42 41 -30 3 4 1 14 -5 22 -7 13 -9 13 -9 1 0
-11 -3 -10 -13 3 -11 15 -14 15 -14 4z"/>
<path d="M3726 3248 c3 -5 10 -6 15 -3 13 9 11 12 -6 12 -8 0 -12 -4 -9 -9z"/>
<path d="M3615 3242 c3 -3 -3 -11 -13 -19 -15 -13 -15 -13 5 -3 28 13 37 27
18 27 -8 0 -13 -3 -10 -5z"/>
<path d="M5517 3243 c-3 -3 -1 -15 5 -28 7 -17 7 -32 0 -54 -7 -19 -7 -33 -1
-37 5 -3 9 -2 8 3 -5 17 14 83 21 78 10 -6 8 -24 -5 -45 -5 -10 -1 -8 13 3 19
18 20 47 1 47 -5 0 -9 6 -9 14 0 14 -24 29 -33 19z m21 -28 c-3 -3 -9 2 -12
12 -6 14 -5 15 5 6 7 -7 10 -15 7 -18z"/>
<path d="M5874 3239 c-3 -6 -2 -15 3 -20 5 -5 9 -1 10 11 2 22 -2 25 -13 9z"/>
<path d="M3641 3227 c-8 -10 -7 -14 2 -14 8 0 14 6 14 14 0 7 -1 13 -2 13 -2
0 -8 -6 -14 -13z"/>
<path d="M4655 3220 c-12 -13 -22 -17 -30 -10 -8 6 -11 2 -11 -15 l0 -25 30
28 c24 23 28 24 23 7 -7 -18 -6 -19 6 -3 8 10 18 14 23 10 4 -4 2 1 -5 11 -16
21 -14 21 -36 -3z"/>
<path d="M5305 3230 c-3 -5 -1 -10 4 -10 6 0 11 5 11 10 0 6 -2 10 -4 10 -3 0
-8 -4 -11 -10z"/>
<path d="M5330 3230 c0 -5 5 -10 11 -10 5 0 7 5 4 10 -3 6 -8 10 -11 10 -2 0
-4 -4 -4 -10z"/>
<path d="M5736 3207 c-3 -16 -3 -34 1 -40 4 -6 1 -7 -7 -2 -8 5 -11 4 -7 -2 3
-5 0 -10 -8 -10 -8 0 -11 5 -8 11 4 6 0 5 -8 -1 -13 -10 -16 -10 -16 2 0 8 5
12 10 8 5 -3 6 4 3 18 -7 24 -7 24 8 -1 9 -14 15 -19 15 -10 -1 24 -13 45 -29
48 -8 2 -12 1 -8 -3 3 -4 2 -19 -3 -34 -7 -20 -6 -35 5 -55 12 -24 15 -26 20
-9 3 10 4 5 2 -10 -4 -31 8 -25 18 8 3 11 3 2 1 -20 -3 -28 -2 -35 5 -25 5 8
10 26 10 40 0 19 3 21 9 11 5 -8 7 -21 4 -30 -4 -13 -3 -13 5 -2 6 8 7 21 4
30 -5 13 -3 14 10 3 12 -10 18 -10 27 2 9 10 8 16 -3 25 -13 11 -31 57 -28 72
0 3 -5 6 -13 6 -7 0 -16 -14 -19 -30z m52 -50 c8 -9 9 -18 3 -21 -5 -4 -12 -2
-16 3 -3 5 -15 8 -26 6 -16 -3 -18 -1 -10 9 6 7 8 15 5 19 -3 3 -2 16 2 29 l7
23 11 -26 c6 -14 17 -33 24 -42z"/>
<path d="M5753 3179 c1 -14 7 -26 14 -26 8 0 9 5 4 11 -4 6 -11 18 -14 26 -3
8 -5 3 -4 -11z"/>
<path d="M5920 3229 c0 -5 5 -7 10 -4 6 3 10 8 10 11 0 2 -4 4 -10 4 -5 0 -10
-5 -10 -11z"/>
<path d="M3690 3226 c0 -3 9 -10 20 -16 11 -6 20 -8 20 -6 0 3 -9 10 -20 16
-11 6 -20 8 -20 6z"/>
<path d="M4589 3228 c-6 -20 -6 -39 0 -42 4 -3 7 6 7 20 0 20 -4 32 -7 22z"/>
<path d="M4773 3215 c0 -8 4 -12 9 -9 5 3 6 10 3 15 -9 13 -12 11 -12 -6z"/>
<path d="M4495 3211 c-3 -5 -2 -12 3 -15 5 -3 9 1 9 9 0 17 -3 19 -12 6z"/>
<path d="M3223 3155 c0 -27 2 -38 4 -22 2 15 2 37 0 50 -2 12 -4 0 -4 -28z"/>
<path d="M3630 3191 c0 -6 4 -13 10 -16 6 -3 7 1 4 9 -7 18 -14 21 -14 7z"/>
<path d="M3670 3190 c-9 -6 -10 -10 -3 -10 6 0 15 5 18 10 8 12 4 12 -15 0z"/>
<path d="M4717 3188 c4 -7 -20 -12 -39 -9 -5 0 -7 -2 -6 -6 3 -17 -15 -42 -26
-36 -6 3 -8 3 -4 -1 3 -4 0 -26 -8 -48 -21 -61 -16 -70 7 -11 18 46 67 103 89
103 11 0 20 -37 20 -82 0 -27 -7 -44 -29 -66 -48 -48 -54 -91 -48 -342 11
-415 54 -551 188 -591 71 -22 265 12 424 74 l80 31 -85 27 c-102 34 -126 35
-208 9 -35 -11 -73 -20 -84 -20 -23 0 -21 19 15 109 23 58 60 86 144 109 l38
11 -45 -6 c-25 -3 -50 -10 -57 -15 -7 -5 -18 -6 -24 -2 -8 4 -9 3 -5 -4 4 -7
1 -12 -9 -12 -9 0 -13 5 -10 10 4 6 3 10 -2 9 -24 -4 -33 4 -33 29 0 20 3 23
9 12 6 -8 8 -17 6 -20 -2 -4 2 -7 9 -7 7 0 13 6 13 13 0 7 -4 11 -8 9 -4 -3
-9 2 -13 10 -3 8 -1 17 4 20 14 8 8 48 -10 70 -9 11 -16 34 -15 52 1 19 -3 29
-9 26 -5 -4 -7 1 -3 11 4 10 7 25 7 33 0 9 3 13 7 9 7 -7 12 -31 16 -83 2 -28
27 -72 27 -49 0 5 8 2 18 -5 15 -11 15 -11 4 1 -7 8 -18 15 -24 15 -14 0 -19
33 -7 41 5 3 3 15 -6 27 -17 25 -20 41 -5 32 6 -4 9 -1 8 7 -2 7 3 12 10 10 6
-1 11 1 11 5 -4 25 2 63 9 59 5 -3 8 -28 7 -55 -1 -28 1 -48 5 -46 4 2 6 21 5
42 -1 21 5 45 12 55 10 11 11 18 3 23 -6 3 -9 3 -8 -2 2 -4 -1 -9 -7 -10 -5
-2 -10 5 -10 15 1 9 7 16 15 14 10 -3 9 2 -4 17 -10 11 -23 18 -27 15 -5 -3
-9 1 -9 8 0 16 -60 74 -73 70 -4 -1 -5 2 -2 8 4 6 -26 43 -67 83 -88 86 -111
115 -103 127 3 6 -1 7 -9 4 -17 -6 -27 11 -30 48 -1 16 -7 23 -23 23 -11 0
-19 -3 -16 -7z m263 -313 c-5 -7 -9 -14 -7 -16 1 -2 0 -3 -2 -1 -11 7 -7 29 5
29 9 0 11 -4 4 -12z m25 -72 c-2 -20 1 -31 7 -27 5 4 8 24 6 45 -2 24 0 35 6
29 5 -5 9 -23 8 -39 0 -17 4 -34 10 -37 7 -4 8 -2 4 5 -10 16 1 44 14 36 8 -5
7 -11 -1 -21 -6 -8 -8 -14 -3 -14 4 0 3 -5 -4 -12 -7 -7 -12 -21 -12 -33 0
-29 -20 -48 -36 -34 -14 11 -18 6 -28 -33 -3 -15 -2 -29 3 -32 5 -4 8 -17 7
-31 -2 -13 5 -31 14 -40 21 -19 23 -60 4 -76 -21 -17 -17 -55 7 -70 21 -14 21
-14 1 -37 -14 -16 -21 -19 -25 -10 -3 7 -5 -1 -4 -18 0 -17 -4 -37 -9 -45 -9
-15 -14 -33 -17 -66 -2 -12 -5 -25 -9 -28 -8 -8 -3 50 6 63 3 6 2 13 -3 17 -6
3 -7 13 -4 22 4 9 2 14 -3 10 -11 -6 -12 48 -1 59 4 4 1 14 -6 22 -9 13 -9 14
1 8 6 -4 12 -3 12 3 0 5 -3 11 -7 14 -5 2 -2 2 5 1 7 -2 12 7 12 26 0 16 4 31
10 35 6 4 6 15 0 31 -13 34 -13 39 5 24 8 -7 13 -15 11 -19 -2 -3 0 -15 4 -25
6 -17 7 -18 13 -3 4 10 2 17 -5 17 -7 0 -6 6 2 16 11 12 11 15 -1 12 -8 -2
-13 3 -11 10 1 8 -2 11 -9 6 -8 -5 -10 1 -7 19 3 16 1 24 -5 20 -6 -4 -8 2 -5
15 4 12 2 20 -2 17 -5 -3 -10 1 -13 7 -2 7 -4 -1 -3 -19 1 -17 4 -29 9 -26 4
2 7 -6 7 -19 0 -17 -3 -20 -9 -9 -7 10 -9 7 -8 -12 1 -14 6 -23 10 -20 5 3 5
-15 2 -39 -8 -49 -15 -63 -15 -27 0 18 -2 21 -9 9 -6 -8 -8 -17 -5 -21 2 -4 0
-10 -6 -14 -6 -4 -7 -12 -4 -18 4 -7 3 -8 -2 -4 -5 5 -10 17 -10 28 -1 10 -2
20 -4 22 -7 9 -6 36 1 31 5 -3 7 -9 4 -14 -3 -5 -1 -11 4 -14 14 -9 21 21 8
33 -10 8 -15 92 -7 111 1 3 2 9 1 13 -1 5 2 6 7 3 5 -3 9 9 10 27 1 18 3 46 6
62 2 18 -3 37 -13 48 -13 15 -13 18 -1 15 8 -2 14 3 13 10 -2 6 2 11 9 10 15
-4 18 22 4 42 -9 13 -9 13 6 2 20 -16 18 -34 -6 -61 -10 -11 -13 -21 -7 -25 5
-3 8 -22 6 -42 -4 -48 13 -30 19 19 3 23 1 35 -4 32 -18 -11 -10 2 12 21 14
11 18 13 10 3 -9 -12 -9 -19 1 -33 12 -16 13 -14 14 18 1 20 -3 38 -7 41 -4 3
-6 15 -2 27 5 21 6 21 12 2 4 -10 6 -34 5 -51z m-89 -51 c-3 -3 0 -12 6 -21
10 -13 10 -14 -2 -4 -16 15 -23 46 -8 37 5 -3 7 -9 4 -12z m-7 -36 c9 -11 9
-16 -1 -22 -7 -4 -10 -4 -6 1 4 4 3 14 -3 22 -6 7 -9 13 -6 13 2 0 10 -6 16
-14z m-4 -53 c-2 -10 -4 -20 -5 -23 -1 -3 -2 -9 -1 -13 1 -5 -3 -6 -9 -2 -6 3
-7 12 -3 18 4 7 8 15 9 20 3 14 4 17 8 17 2 0 3 -8 1 -17z m123 -510 c2 -1
-11 0 -29 1 -18 1 -35 8 -37 14 -2 7 -7 10 -11 8 -4 -3 -8 1 -8 9 0 8 4 12 9
9 4 -3 8 0 8 7 0 7 15 0 32 -17 18 -16 34 -30 36 -31z m16 -22 c-8 -8 -34 -10
-38 -2 -3 4 6 7 19 7 14 0 22 -2 19 -5z"/>
<path d="M5006 2751 c-13 -25 -13 -31 -2 -40 18 -15 25 -4 20 32 -2 18 1 25 8
21 7 -4 8 -2 4 4 -10 17 -14 15 -30 -17z m11 -20 c0 -11 -5 -18 -9 -15 -4 3
-5 11 -1 19 7 21 12 19 10 -4z"/>
<path d="M4973 2736 c0 -27 -20 -59 -32 -52 -4 3 -7 -4 -8 -14 -1 -12 4 -17
15 -16 9 2 17 9 18 17 0 8 6 27 13 43 7 18 8 33 3 38 -6 6 -9 -1 -9 -16z"/>
<path d="M4924 2618 c-15 -24 -10 -98 8 -114 12 -12 16 -12 14 -2 -1 7 -4 18
-7 23 -3 6 -5 31 -3 58 2 49 0 55 -12 35z"/>
<path d="M4967 2458 c-7 -43 -11 -61 -18 -73 -4 -5 -4 -19 -2 -30 3 -11 5 -28
6 -37 2 -30 19 -3 20 33 1 19 7 34 14 34 7 0 18 6 25 14 7 8 8 11 2 8 -15 -9
-38 37 -31 62 3 12 2 21 -3 21 -4 0 -10 -15 -13 -32z m24 -50 c6 -13 8 -20 4
-15 -5 4 -18 -1 -29 -10 -15 -14 -18 -14 -8 -2 6 9 8 20 4 24 -4 5 -1 4 7 0
11 -6 13 -4 8 8 -9 25 0 21 14 -5z"/>
<path d="M4966 2177 c3 -8 11 -14 19 -14 11 0 12 4 4 14 -6 7 -15 13 -20 13
-5 0 -6 -6 -3 -13z"/>
<path d="M4330 3175 c-12 -14 -7 -19 13 -16 5 1 6 -3 3 -8 -4 -5 -2 -12 4 -16
5 -3 10 0 10 7 0 8 5 6 11 -5 8 -13 7 -22 -2 -34 -27 -32 -31 -102 -8 -127 11
-11 19 -16 19 -11 0 5 7 0 15 -11 15 -19 15 -19 8 1 -6 18 -5 18 10 6 14 -11
15 -17 5 -30 -12 -14 -11 -14 5 -2 12 9 14 17 7 26 -5 6 -6 15 -2 19 4 4 8 20
8 34 3 42 3 44 17 36 6 -5 -6 14 -29 41 -22 28 -49 62 -61 77 -18 24 -22 26
-33 13z m72 -91 c-2 -10 -1 -16 4 -12 13 13 34 -13 26 -31 -5 -9 -7 -26 -6
-39 0 -12 -3 -25 -9 -29 -6 -4 -8 5 -4 23 3 16 4 23 0 15 -4 -10 -7 -10 -13
-1 -5 9 -9 9 -14 1 -4 -6 -2 -11 3 -11 6 0 11 -8 11 -17 0 -15 -2 -16 -10 -3
-8 13 -10 13 -10 1 0 -11 -4 -9 -14 5 -9 11 -11 23 -6 28 5 5 6 14 1 20 -11
15 16 79 32 73 7 -2 10 -13 9 -23z"/>
<path d="M4373 3070 c-7 -19 -8 -32 -2 -36 6 -4 6 -11 -1 -19 -8 -10 -8 -15 1
-21 7 -4 9 -3 6 3 -7 12 16 36 26 27 3 -3 10 4 17 15 6 12 8 22 5 22 -3 1 -11
2 -17 3 -7 1 -12 9 -12 19 3 27 -11 20 -23 -13z m41 -13 c4 4 4 -1 0 -11 -5
-12 -9 -14 -14 -6 -6 9 -9 9 -13 -1 -3 -8 -4 -4 -4 8 1 15 5 19 13 13 6 -6 14
-7 18 -3z"/>
<path d="M3446 3161 c-9 -14 3 -38 19 -38 8 0 15 6 15 12 0 18 -27 38 -34 26z"/>
<path d="M5571 3156 c-9 -11 -9 -16 1 -22 7 -4 10 -4 6 1 -4 4 -3 14 3 22 6 7
9 13 6 13 -2 0 -10 -6 -16 -14z"/>
<path d="M5429 3153 c0 -5 -2 -16 -4 -26 -2 -11 -1 -16 3 -13 8 8 14 46 7 46
-3 0 -5 -3 -6 -7z"/>
<path d="M3636 3138 c3 -5 10 -6 15 -3 13 9 11 12 -6 12 -8 0 -12 -4 -9 -9z"/>
<path d="M5360 3146 c0 -2 8 -10 18 -17 15 -13 16 -12 3 4 -13 16 -21 21 -21
13z"/>
<path d="M5803 3105 c0 -8 4 -12 9 -9 5 3 6 10 3 15 -9 13 -12 11 -12 -6z"/>
<path d="M3627 3088 c19 -21 31 -25 14 -5 -6 8 -9 16 -6 19 3 2 -2 5 -10 5
-13 0 -13 -3 2 -19z"/>
<path d="M5776 3101 c-3 -4 4 -17 17 -27 22 -19 22 -19 4 2 -9 11 -14 24 -10
27 3 4 4 7 0 7 -3 0 -8 -4 -11 -9z"/>
<path d="M6031 3094 c0 -11 3 -14 6 -6 3 7 2 16 -1 19 -3 4 -6 -2 -5 -13z"/>
<path d="M3462 3084 c-9 -7 -18 -23 -18 -36 -1 -13 -4 -32 -7 -43 -3 -11 1
-29 9 -40 8 -10 14 -15 14 -9 0 5 7 0 15 -10 8 -11 15 -15 15 -9 0 7 -4 15
-10 18 -5 3 -10 17 -10 31 0 14 4 23 10 19 6 -3 13 1 16 9 3 9 14 16 23 17 10
0 11 2 3 6 -6 2 -9 9 -6 15 4 6 1 9 -7 6 -8 -3 -14 -11 -14 -19 0 -8 -7 -13
-16 -12 -9 2 -15 -6 -17 -24 -1 -14 -4 -29 -7 -32 -3 -3 -4 10 -3 28 1 19 10
37 20 42 18 10 16 29 -3 29 -6 0 -7 -5 -3 -12 4 -7 3 -8 -5 -4 -20 13 -2 26
28 20 19 -4 30 -1 33 8 7 18 -37 19 -60 2z"/>
<path d="M3571 3094 c-1 -18 36 -47 44 -34 4 6 1 9 -7 8 -7 -2 -12 3 -10 10 1
8 -2 11 -7 8 -5 -4 -12 0 -14 6 -3 8 -6 8 -6 2z"/>
<path d="M3539 3088 c-8 -27 -6 -38 5 -29 7 6 17 7 22 3 4 -4 2 1 -5 11 -12
16 -20 21 -22 15z"/>
<path d="M5763 3065 c0 -8 4 -12 9 -9 5 3 6 10 3 15 -9 13 -12 11 -12 -6z"/>
<path d="M4223 3064 c4 -7 -3 -25 -15 -40 -12 -16 -18 -26 -13 -22 4 4 14 3
21 -3 10 -8 15 -8 19 3 7 18 1 55 -10 65 -4 5 -5 3 -2 -3z m4 -56 c-3 -8 -6
-5 -6 6 -1 11 2 17 5 13 3 -3 4 -12 1 -19z"/>
<path d="M3544 3039 c-8 -14 14 -19 25 -6 8 10 7 14 -5 14 -8 0 -17 -4 -20 -8z"/>
<path d="M4470 3036 c0 -2 8 -10 18 -17 15 -13 16 -12 3 4 -13 16 -21 21 -21
13z"/>
<path d="M3575 3019 c-3 -4 2 -6 10 -5 21 3 28 13 10 13 -9 0 -18 -4 -20 -8z"/>
<path d="M4454 3005 c0 -13 3 -22 7 -19 8 4 6 30 -2 38 -3 3 -5 -5 -5 -19z"/>
<path d="M4612 2995 c0 -16 2 -22 5 -12 2 9 2 23 0 30 -3 6 -5 -1 -5 -18z"/>
<path d="M5281 2990 c-10 -17 -24 -48 -31 -70 l-13 -40 167 -165 c92 -91 171
-163 176 -160 5 3 12 0 16 -6 5 -8 3 -9 -7 -4 -12 8 -12 6 0 -8 7 -9 18 -14
24 -10 5 3 7 2 4 -4 -6 -9 72 -94 89 -97 5 0 8 -4 7 -7 -4 -13 35 -41 42 -30
6 11 5 13 -17 15 -7 0 -13 6 -13 13 0 6 -3 14 -7 18 -3 4 -2 21 3 38 11 39 11
40 -1 32 -5 -3 -10 -18 -11 -33 -1 -26 -1 -26 -8 4 -4 17 -11 37 -15 45 -4 8
-1 6 7 -4 9 -11 18 -14 21 -8 4 5 2 12 -4 16 -6 4 -8 11 -4 16 3 5 10 7 15 4
5 -4 9 -2 9 3 0 19 -14 21 -34 5 -21 -18 -21 -18 -3 4 11 13 27 20 39 18 12
-3 18 0 15 8 -3 7 -11 10 -18 9 -8 -2 -11 0 -7 4 4 4 2 14 -4 23 -7 9 -2 7 11
-4 13 -11 29 -32 37 -47 13 -24 13 -32 -1 -58 -8 -16 -16 -39 -16 -52 -1 -19
-3 -18 -9 7 -7 28 -8 28 -9 5 0 -14 3 -32 8 -39 8 -12 11 -8 16 15 11 49 15
51 11 7 -2 -24 0 -45 5 -49 5 -3 6 3 2 13 -6 16 -5 16 10 4 9 -7 15 -17 12
-21 -3 -5 -1 -11 4 -14 13 -8 7 22 -7 36 -14 14 -16 72 -3 63 6 -3 8 -14 6
-24 -2 -11 5 -27 16 -36 10 -10 16 -22 12 -28 -4 -6 -1 -7 6 -2 9 5 8 12 -6
29 -21 22 -22 33 -10 54 5 6 6 16 2 21 -3 5 -1 12 4 15 5 4 19 -6 31 -21 14
-18 18 -21 11 -7 -10 20 -105 122 -328 350 -51 52 -93 101 -93 109 0 15 -46
55 -64 55 -6 -1 1 -7 15 -15 37 -20 39 -33 17 -93 -17 -47 -22 -52 -49 -52
-36 0 -109 36 -109 53 0 6 13 38 29 70 30 62 31 75 2 27z m405 -419 c-29 -30
-31 -38 -15 -58 6 -6 14 -26 19 -43 9 -32 9 -32 -10 -15 -14 13 -18 25 -14 39
6 18 5 19 -9 7 -14 -11 -18 -11 -23 3 -4 9 -4 20 0 23 3 4 6 -1 6 -11 0 -9 4
-15 9 -11 6 3 8 14 6 25 -2 10 3 24 11 30 7 7 11 17 7 23 -3 6 -1 7 6 3 6 -4
14 0 17 9 4 9 9 13 12 10 3 -3 -7 -18 -22 -34z m124 -38 c6 -7 6 -14 0 -18 -5
-3 -6 -13 -3 -22 4 -11 3 -14 -6 -9 -6 4 -9 17 -6 29 5 19 4 19 -9 -3 -17 -28
-22 -19 -6 11 8 13 7 26 0 42 -11 21 -11 21 4 2 8 -11 20 -25 26 -32z"/>
<path d="M3567 2987 c-3 -8 1 -14 8 -14 7 0 11 6 8 14 -3 7 -6 13 -8 13 -2 0
-5 -6 -8 -13z"/>
<path d="M3610 2989 c-13 -9 -13 -10 1 -6 9 3 23 0 30 -6 11 -10 11 -9 0 6 -7
9 -14 17 -15 17 0 0 -8 -5 -16 -11z"/>
<path d="M4466 2971 c-3 -5 2 -15 12 -22 15 -12 16 -12 5 2 -7 9 -10 19 -6 22
3 4 4 7 0 7 -3 0 -8 -4 -11 -9z"/>
<path d="M4319 2943 c-13 -16 -12 -17 4 -4 16 13 21 21 13 21 -2 0 -10 -8 -17
-17z"/>
<path d="M3560 2940 c0 -5 5 -10 11 -10 5 0 7 5 4 10 -3 6 -8 10 -11 10 -2 0
-4 -4 -4 -10z"/>
<path d="M3596 2942 c-3 -5 1 -9 9 -9 8 0 12 4 9 9 -3 4 -7 8 -9 8 -2 0 -6 -4
-9 -8z"/>
<path d="M4599 2898 c-3 -97 2 -342 7 -347 2 -2 4 86 4 197 0 111 -2 202 -5
202 -3 0 -6 -24 -6 -52z"/>
<path d="M6204 2913 c7 -22 22 -43 38 -52 33 -19 36 -55 13 -120 -14 -40 -13
-50 26 -219 29 -131 42 -209 46 -299 8 -170 -10 -228 -85 -267 -43 -22 -57
-20 -130 14 -35 17 -74 30 -87 30 -13 0 -52 -13 -87 -30 -58 -28 -71 -30 -175
-30 -105 0 -113 2 -142 25 -38 32 -55 83 -46 137 l7 41 -53 -6 c-52 -6 -190
-55 -369 -132 -201 -86 -329 -86 -415 0 -27 27 -47 59 -58 96 -24 75 -56 254
-64 356 -3 45 -10 80 -15 77 -4 -3 -5 -10 -2 -16 4 -6 2 -8 -3 -5 -6 4 -17 -1
-24 -11 -13 -15 -12 -16 3 -3 22 17 22 16 37 -109 17 -136 49 -285 71 -333 12
-24 81 -105 160 -186 77 -79 140 -150 140 -158 0 -8 4 -12 9 -8 5 3 13 0 17
-6 4 -8 3 -9 -4 -5 -7 4 -12 0 -12 -10 0 -23 -13 -9 -17 18 -4 23 -22 40 -35
32 -4 -3 -4 -12 -1 -20 5 -13 7 -13 14 -2 9 13 9 12 9 -19 0 -5 -8 -8 -17 -8
-10 1 -17 7 -15 15 3 11 0 11 -12 0 -17 -14 -22 -25 -7 -15 6 3 15 -4 21 -15
15 -28 4 -25 -33 10 -18 16 -36 30 -41 30 -4 0 -5 7 -2 16 3 8 2 12 -4 9 -10
-6 -400 378 -400 395 0 16 -62 80 -93 97 -44 22 -108 18 -167 -12 -66 -33 -65
-41 3 -10 132 62 252 -5 249 -139 -2 -76 -16 -83 -89 -45 -82 42 -148 43 -236
1 -89 -43 -129 -81 -271 -266 -69 -91 -146 -185 -170 -209 -116 -115 -217
-100 -246 37 -19 92 7 209 76 347 55 110 95 124 51 17 -52 -125 -64 -228 -34
-285 22 -41 58 -44 113 -7 46 30 62 47 208 229 62 77 145 170 185 208 39 37
69 67 65 67 -3 0 -35 -28 -70 -62 -56 -53 -68 -61 -83 -51 -14 9 -21 9 -30 0
-6 -6 -11 -7 -11 -1 0 5 5 15 11 21 8 8 8 13 0 17 -6 4 -12 5 -12 2 -1 -3 -3
-10 -4 -16 -1 -5 -3 -15 -4 -22 -2 -18 -11 -3 -17 27 -3 20 -1 25 8 19 8 -4
10 -3 5 2 -5 5 -14 9 -20 9 -7 0 -12 5 -12 10 -1 6 -6 20 -14 33 -10 19 -15
21 -27 11 -11 -9 -12 -14 -3 -19 8 -6 8 -9 -2 -12 -10 -3 -9 -10 4 -28 11 -16
17 -19 17 -10 0 12 2 13 9 1 7 -11 9 -11 14 0 3 8 4 -2 1 -21 -3 -22 -1 -30 4
-22 7 11 10 10 16 -3 3 -9 11 -13 17 -10 6 4 4 -7 -5 -23 -18 -36 -33 -47 -33
-27 0 8 4 12 8 10 4 -3 10 2 13 11 10 25 7 27 -11 13 -10 -7 -15 -9 -11 -5 4
5 -2 22 -13 38 -17 23 -24 26 -35 17 -8 -6 -11 -16 -7 -22 3 -6 1 -7 -6 -3 -8
5 -9 12 -3 19 14 17 -20 78 -37 67 -11 -6 -11 -9 0 -13 11 -4 11 -6 1 -6 -10
-1 -10 -6 -2 -23 10 -21 10 -22 -3 -5 -18 22 -17 39 6 61 13 13 14 22 7 36
-13 25 -13 27 5 27 9 0 14 -6 11 -13 -3 -8 -1 -16 5 -20 6 -3 6 -10 1 -17 -5
-7 -6 -21 -1 -32 7 -18 8 -17 8 5 1 15 7 32 14 39 10 10 9 12 -3 9 -8 -2 -14
3 -12 11 3 16 -17 43 -29 36 -4 -3 -16 6 -25 20 -9 13 -20 22 -25 19 -5 -3 -9
2 -9 11 0 9 -43 60 -95 112 -53 53 -105 113 -116 134 -24 48 -30 50 -15 4 16
-45 6 -140 -18 -163 -16 -16 -18 -16 -30 1 -24 31 -70 41 -107 21 -87 -44
-213 -198 -207 -251 3 -28 5 -28 108 -44 173 -26 218 -58 207 -143 -20 -145
-132 -258 -342 -345 -213 -89 -340 -80 -442 32 -66 71 -95 138 -104 237 l-7
85 2 -87 c3 -118 37 -187 151 -307 61 -63 81 -91 73 -99 -8 -8 -5 -10 8 -8 22
4 64 -30 64 -51 0 -8 4 -12 9 -9 13 9 121 -75 121 -93 0 -19 -37 -101 -45
-101 -9 0 -115 69 -115 75 0 3 12 28 26 56 14 28 23 53 20 56 -2 3 -11 -8 -19
-24 l-15 -28 3 42 c1 24 -1 40 -6 38 -4 -3 -6 -16 -3 -29 5 -30 -21 -30 -43 0
-13 18 -14 17 -9 -9 3 -19 1 -27 -7 -24 -7 2 -11 15 -10 28 l3 24 -10 -22 c-5
-13 -12 -23 -15 -23 -6 0 -2 32 7 46 4 6 1 11 -6 11 -7 0 -13 -7 -13 -16 0
-33 -3 -42 -12 -37 -5 3 -7 19 -6 36 1 17 -1 32 -4 35 -4 2 -7 -13 -7 -33 1
-20 -3 -38 -9 -39 -5 -2 -9 8 -9 22 1 13 -2 23 -6 20 -10 -6 -6 -37 8 -60 8
-14 12 -16 12 -5 0 13 2 13 9 0 6 -8 8 -17 5 -21 -2 -4 14 -5 35 -3 38 4 39 3
36 -24 -1 -15 2 -32 7 -39 6 -7 5 -14 -2 -18 -6 -4 -9 -1 -8 7 2 7 -3 12 -9
11 -7 -2 -12 0 -12 5 3 19 -2 25 -11 12 -8 -11 -9 -7 -4 15 4 21 3 26 -4 16
-8 -11 -10 -11 -15 0 -5 12 -6 12 -6 0 -1 -8 -14 3 -30 23 -18 23 -27 44 -24
53 4 10 2 14 -4 10 -6 -4 -27 19 -48 49 -20 31 -32 53 -26 50 6 -4 11 -2 11 4
0 6 5 8 11 4 8 -4 7 -9 -2 -16 -11 -8 -10 -9 2 -5 9 3 23 0 30 -6 11 -10 11
-9 1 4 -6 9 -8 19 -4 23 4 4 0 6 -8 4 -8 -2 -14 3 -12 10 2 10 -2 10 -17 3
-13 -8 -22 -7 -29 2 -19 24 -115 223 -147 306 -19 50 -35 78 -39 70 -3 -8 -4
-3 -2 9 3 13 2 21 -2 17 -4 -3 -14 20 -23 52 -10 32 -18 52 -18 44 -2 -25 57
-217 99 -322 314 -792 1025 -1340 1895 -1461 117 -16 454 -16 575 1 801 109
1471 588 1815 1296 85 175 142 334 179 497 30 135 56 305 55 363 -1 22 -7 -5
-15 -59 -19 -145 -45 -257 -58 -253 -14 5 -17 50 -4 58 7 4 6 20 -2 45 -7 22
-12 40 -12 42 5 6 17 1 17 -7 0 -5 3 -12 7 -16 3 -4 5 0 4 9 -1 8 -5 19 -9 22
-4 4 1 17 10 28 18 21 18 21 -4 2 -19 -16 -23 -16 -28 -4 -3 8 -1 27 5 43 6
15 8 30 5 33 -3 3 -5 0 -5 -7 0 -7 -5 -9 -11 -6 -7 5 -5 13 6 25 11 13 13 20
5 25 -6 4 -14 4 -17 1 -4 -3 -1 -6 6 -6 7 0 9 -5 5 -12 -5 -8 -11 -6 -19 6
-11 15 -13 15 -19 1 -4 -11 -2 -14 6 -9 6 4 8 3 4 -4 -3 -6 -3 -13 2 -16 4 -2
7 -27 7 -54 0 -28 3 -49 6 -46 4 2 6 -13 4 -33 -3 -27 -2 -32 4 -18 6 14 8 6
7 -28 -1 -41 -3 -45 -14 -30 -7 10 -18 17 -23 15 -6 -1 -8 2 -5 7 4 5 2 12 -4
16 -6 3 -7 14 -2 23 7 16 8 36 2 55 -1 4 -3 15 -4 25 -1 9 -5 23 -9 30 -5 6
-5 12 -1 12 4 0 -1 9 -12 21 -14 15 -15 20 -4 17 8 -2 14 3 12 10 -1 8 2 11 8
7 5 -3 10 -2 10 3 0 5 -11 12 -25 14 -20 4 -23 2 -15 -8 9 -10 6 -11 -9 -7
-12 3 -28 0 -36 -7 -9 -7 -18 -10 -21 -7 -4 3 -16 -3 -28 -14 l-21 -20 -3 33
c-2 18 -7 56 -11 85 -4 29 -4 50 1 47 4 -3 8 -22 8 -42 0 -26 3 -33 9 -23 5 8
8 23 6 33 -2 10 1 18 7 18 5 0 7 -7 4 -16 -3 -8 -2 -13 3 -10 4 3 8 -5 7 -17
-1 -12 -7 -21 -14 -19 -8 1 -12 -11 -12 -34 0 -19 4 -33 9 -29 6 3 8 14 6 25
-2 11 1 20 7 20 5 0 8 -6 5 -14 -6 -15 9 -16 31 -2 9 5 10 11 3 20 -6 7 -8 16
-4 20 11 10 12 37 2 30 -5 -3 -7 -9 -4 -14 3 -5 1 -11 -4 -14 -11 -7 -22 19
-13 29 4 4 7 20 8 36 0 22 -3 26 -13 18 -7 -6 -10 -16 -7 -21 4 -6 -3 -5 -15
1 -25 14 -28 23 -4 14 12 -5 14 -3 8 7 -5 9 -4 11 3 6 7 -4 12 -3 12 2 0 6 10
12 23 16 13 3 41 13 63 22 21 10 49 18 61 18 12 1 25 4 28 8 4 4 -5 5 -21 2
l-28 -5 19 23 c11 13 14 18 6 12 -14 -13 -51 -7 -51 7 0 5 -7 9 -15 9 -8 0
-15 6 -15 13 0 8 -3 7 -10 -3 -7 -12 -9 -10 -7 7 1 21 2 21 19 6 10 -9 18 -12
18 -7 0 5 4 3 9 -5 5 -8 17 -16 25 -17 9 -1 13 2 9 9 -4 7 0 8 13 3 15 -6 16
-5 7 5 -9 9 -16 9 -25 1 -11 -8 -17 -6 -25 8 -7 11 -34 23 -67 31 -31 6 -53
15 -51 20 3 4 -8 10 -25 14 -16 4 -30 11 -30 17 0 6 3 8 7 5 3 -4 12 -2 20 4
10 9 10 15 2 25 -6 8 -15 11 -20 8 -5 -3 -9 7 -9 21 0 15 4 24 10 20 6 -4 7
-11 4 -17 -4 -6 -2 -8 4 -5 19 12 1 59 -40 102 -15 17 -28 38 -28 47 0 9 -5
20 -11 24 -7 4 -9 0 -5 -12 8 -28 84 -641 97 -795 11 -118 10 -138 -4 -171 -9
-21 -21 -38 -26 -38 -14 0 -30 64 -45 184 -8 55 -14 84 -15 63 0 -23 -5 -36
-11 -32 -5 3 -10 -1 -10 -9 0 -9 -6 -16 -14 -16 -9 0 -13 -7 -11 -20 2 -11 -2
-21 -8 -22 -35 -4 -67 -4 -62 0 2 3 -5 18 -17 35 -12 17 -17 27 -10 23 7 -4
12 -3 12 2 0 15 -13 22 -24 12 -9 -6 -12 1 -13 27 0 21 2 30 7 23 5 -7 7 -18
6 -24 -2 -6 -1 -7 2 -3 2 5 11 -1 19 -12 8 -12 12 -25 9 -30 -3 -4 1 -17 9
-27 14 -18 15 -17 9 11 -4 17 -8 32 -10 34 -2 2 2 11 9 20 11 14 10 14 -5 2
-11 -8 -18 -9 -18 -3 0 6 5 14 10 17 8 5 8 11 1 19 -7 9 -7 16 0 23 8 8 7 13
-2 18 -7 5 -10 4 -5 -3 3 -6 2 -13 -3 -16 -5 -4 -11 -1 -14 6 -2 7 -3 5 -1 -5
2 -13 -2 -17 -13 -13 -8 3 -17 6 -19 6 -2 0 -4 10 -3 23 0 21 1 21 9 2 8 -17
9 -16 7 7 -2 15 -6 30 -10 34 -18 18 -4 25 15 8 14 -12 18 -13 10 -3 -6 9 -9
18 -6 22 3 3 -2 4 -13 3 -16 -3 -18 -12 -16 -86 3 -91 -5 -103 -13 -19 -3 30
-7 62 -9 72 -2 12 19 35 71 74 48 37 70 61 64 67 -6 6 -4 17 8 30 9 11 11 16
5 12 -8 -4 -13 -1 -13 9 0 9 4 14 9 11 5 -4 11 0 14 6 2 7 9 -12 15 -42 l11
-55 -5 75 c-3 41 -12 116 -19 165 -9 59 -12 70 -9 30 l5 -59 -38 44 c-20 25
-53 59 -71 75 -79 70 -172 173 -172 190 0 7 -6 18 -14 24 -11 9 -11 5 -2 -26z
m405 -81 c15 -21 18 -32 9 -30 -9 2 -13 -9 -13 -39 0 -23 -3 -45 -8 -49 -4 -4
-7 6 -7 22 0 16 -3 54 -6 84 -4 30 -5 53 -2 50 2 -3 15 -20 27 -38z m25 -103
c-3 -5 -10 -7 -15 -3 -5 3 -7 10 -3 15 3 5 10 7 15 3 5 -3 7 -10 3 -15z m147
-161 c0 -10 2 -10 6 0 2 6 10 12 16 12 8 0 7 -4 -1 -12 -15 -15 -44 -20 -36
-6 4 6 1 8 -7 6 -8 -3 -13 -11 -11 -17 1 -7 -2 -10 -8 -6 -8 5 -7 11 1 21 14
17 39 18 40 2z m-308 -103 c4 -8 2 -17 -4 -21 -7 -4 -6 -10 1 -19 8 -9 6 -14
-5 -19 -8 -3 -18 -5 -21 -5 -4 0 -10 -5 -15 -13 -6 -9 -8 -6 -6 9 0 12 5 19
10 16 5 -3 8 0 5 8 -3 8 -10 14 -15 14 -6 0 -15 3 -19 7 -3 4 3 5 16 3 16 -3
20 0 16 10 -4 12 6 22 25 24 4 1 9 -6 12 -14z m231 -97 c-4 -6 -10 -5 -15 3
-14 22 -10 33 6 19 8 -7 12 -17 9 -22z m133 -80 c-3 -8 -6 -5 -6 6 -1 11 2 17
5 13 3 -3 4 -12 1 -19z m-3141 -13 c-1 -8 -5 -17 -8 -21 -5 -4 -4 16 1 34 3 9
9 -1 7 -13z m56 -68 c-1 -4 2 -16 8 -26 12 -24 1 -34 -18 -18 -13 10 -15 9 -9
-5 3 -10 2 -20 -4 -23 -5 -4 -9 -3 -8 2 5 28 -1 35 -18 22 -15 -11 -16 -11 -6
0 6 7 9 21 6 30 -4 11 -1 10 10 -4 19 -23 22 -13 6 16 -6 11 -15 17 -22 12 -9
-5 -9 -3 0 9 7 8 9 19 5 23 -4 5 -1 5 6 1 7 -4 12 -2 12 6 0 7 8 1 17 -12 10
-14 17 -29 15 -33z m-197 -14 c-1 -16 3 -32 9 -36 7 -5 5 -7 -4 -4 -14 3 -22
41 -13 60 7 13 10 7 8 -20z m2869 -4 c-3 -5 -10 -7 -15 -3 -5 3 -7 10 -3 15 3
5 10 7 15 3 5 -3 7 -10 3 -15z m-2937 -4 c0 -8 -4 -12 -9 -9 -5 3 -6 10 -3 15
9 13 12 11 12 -6z m100 -17 c4 -28 -6 -18 -12 12 -2 12 -1 20 2 16 4 -4 8 -16
10 -28z m-86 -11 c-10 -9 -11 -8 -5 6 3 10 9 15 12 12 3 -3 0 -11 -7 -18z
m189 17 c0 -8 -19 -13 -24 -6 -3 5 1 9 9 9 8 0 15 -2 15 -3z m166 -60 c1 -7
-5 -10 -15 -9 -9 2 -18 4 -20 4 -3 1 0 6 6 12 6 6 9 19 6 28 -3 10 0 9 8 -4 7
-11 14 -25 15 -31z m-709 14 c-3 -8 -6 -5 -6 6 -1 11 2 17 5 13 3 -3 4 -12 1
-19z m429 -22 c0 -19 -3 -33 -7 -31 -7 5 -4 65 4 65 1 0 3 -15 3 -34z m80 15
c-7 -10 18 -34 27 -25 3 3 4 -2 3 -13 -5 -25 5 -38 15 -22 7 11 9 11 9 1 0 -8
5 -10 13 -6 9 6 9 4 -1 -8 -11 -14 -10 -18 5 -27 11 -6 13 -11 5 -11 -7 0 -11
-4 -7 -9 3 -5 1 -13 -5 -16 -8 -5 -7 -12 2 -23 12 -15 11 -16 -4 -3 -10 7 -15
18 -11 25 14 21 11 35 -13 57 -28 26 -32 16 -7 -15 15 -19 15 -19 -7 1 -19 18
-21 25 -11 37 7 8 8 17 3 20 -9 5 -24 -16 -26 -36 -3 -19 -12 -14 -12 7 0 13
3 22 7 19 4 -2 9 3 13 11 3 8 1 17 -5 20 -9 6 -4 25 7 25 3 0 3 -4 0 -9z m-22
-16 c3 -8 0 -14 -7 -12 -7 1 -11 -3 -10 -9 1 -6 -4 -11 -11 -11 -7 0 -13 6
-13 13 0 7 4 11 9 8 4 -3 11 2 14 10 8 20 10 20 18 1z m2920 -25 c-6 -6 -10
-3 -10 10 0 13 4 16 10 10 7 -7 7 -13 0 -20z m-2766 -5 c-3 -3 -9 2 -12 12 -6
14 -5 15 5 6 7 -7 10 -15 7 -18z m163 -42 c10 -11 10 -14 2 -9 -8 4 -13 2 -13
-6 0 -10 -3 -9 -11 2 -9 12 -10 10 -6 -8 3 -13 3 -21 0 -18 -3 3 -12 -2 -20
-12 -11 -15 -12 -13 -1 13 11 28 27 55 33 55 1 0 9 -8 16 -17z m-280 -20 c12
-16 12 -17 -2 -6 -9 7 -20 9 -24 5 -5 -4 -5 -1 -1 6 9 16 11 15 27 -5z m102
-18 c-3 -9 -8 -14 -10 -11 -3 3 -2 9 2 15 9 16 15 13 8 -4z m-32 -18 c-10 -9
-11 -8 -5 6 3 10 9 15 12 12 3 -3 0 -11 -7 -18z m40 -14 c-12 -20 -14 -14 -5
12 4 9 9 14 11 11 3 -2 0 -13 -6 -23z m3023 18 c3 -5 -2 -15 -12 -22 -15 -12
-16 -12 -5 2 7 9 10 19 6 22 -3 4 -4 7 0 7 3 0 8 -4 11 -9z m-3047 -26 c0 -8
-4 -12 -9 -9 -5 3 -6 10 -3 15 9 13 12 11 12 -6z m71 -30 c-3 -3 -9 2 -12 12
-6 14 -5 15 5 6 7 -7 10 -15 7 -18z m-24 4 c3 -3 -5 -5 -19 -5 -13 0 -22 3
-19 7 4 8 30 6 38 -2z m2780 -67 c3 -5 -1 -9 -9 -9 -8 0 -12 4 -9 9 3 4 7 8 9
8 2 0 6 -4 9 -8z m71 -50 c-3 -3 1 -12 8 -21 11 -14 10 -14 -5 -3 -10 8 -16
19 -15 25 1 7 -3 11 -9 10 -6 -1 -11 5 -11 13 0 11 4 11 19 -3 10 -9 16 -18
13 -21z m-484 -1 c7 11 9 11 9 1 0 -7 4 -11 9 -8 4 3 8 -8 7 -24 0 -17 4 -29
9 -27 5 1 8 9 7 19 -2 9 1 19 7 22 5 4 7 -4 4 -16 -4 -19 -3 -20 6 -8 7 9 11
10 11 3 0 -6 9 -10 19 -8 18 3 23 -16 8 -31 -3 -4 -3 -12 1 -18 4 -6 7 -20 7
-31 1 -11 6 -19 13 -18 7 2 11 0 10 -5 -2 -4 2 -8 7 -9 6 -2 10 5 10 15 -1 9
-6 16 -11 15 -6 -1 -11 5 -11 13 0 12 3 12 17 -1 22 -20 21 -41 -2 -62 -15
-14 -19 -14 -16 -3 2 8 -3 14 -9 13 -7 -2 -12 0 -12 5 1 4 0 10 -1 15 -2 7 -6
21 -9 33 0 3 -6 2 -11 -1 -7 -4 -6 -14 1 -28 9 -17 9 -19 0 -11 -14 13 -23 55
-11 51 4 -1 7 3 7 8 -1 6 -5 9 -9 8 -5 -2 -7 0 -5 5 1 4 -2 7 -8 7 -5 0 -9 -8
-9 -18 1 -14 -1 -16 -10 -7 -6 6 -11 16 -11 23 -1 7 -6 11 -11 10 -6 -1 -11 4
-11 12 0 8 4 12 9 9 4 -3 8 2 8 10 0 9 -7 13 -18 11 -13 -2 -18 3 -19 18 0 12
1 16 4 8 5 -11 7 -11 14 0z m410 -12 c7 -12 9 -12 9 1 0 13 1 13 10 0 5 -9 5
-19 -2 -27 -6 -7 -7 -13 -3 -13 4 0 2 -7 -5 -15 -9 -11 -9 -15 -1 -15 6 0 15
10 20 23 6 16 8 7 8 -34 -1 -60 -14 -70 -42 -33 -17 22 -20 12 -4 -18 7 -13 7
-18 1 -14 -10 6 -26 -10 -27 -26 0 -3 -3 -9 -7 -12 -5 -3 -6 -3 -3 1 3 3 -5
17 -17 31 -13 13 -17 22 -9 20 7 -2 16 3 19 11 2 8 0 11 -5 8 -6 -4 -10 7 -9
26 1 18 -3 33 -9 34 -5 2 -10 -10 -9 -27 0 -16 -2 -27 -6 -25 -13 8 -4 71 13
95 9 13 17 20 17 14 0 -6 7 -11 15 -11 18 0 20 13 3 21 -7 2 -3 4 10 2 13 -1
28 -9 33 -17z m-117 -7 c3 -5 -1 -9 -9 -9 -8 0 -12 4 -9 9 3 4 7 8 9 8 2 0 6
-4 9 -8z m-424 -27 c56 -29 62 -46 34 -115 -18 -45 -39 -51 -97 -27 -52 22
-61 39 -42 84 18 42 43 83 51 83 2 0 27 -11 54 -25z m427 -10 c0 -8 -4 -12 -9
-9 -5 3 -6 10 -3 15 9 13 12 11 12 -6z m-247 -71 c0 -8 -19 -13 -24 -6 -3 5 1
9 9 9 8 0 15 -2 15 -3z m-1229 -21 c9 -9 7 -11 -7 -8 -11 2 -22 4 -26 4 -5 1
-8 5 -8 10 0 12 27 8 41 -6z m26 -20 l-5 -38 13 30 c7 17 11 33 8 38 -8 14 5
7 18 -10 10 -11 10 -14 2 -9 -8 4 -13 1 -13 -9 0 -9 4 -13 10 -10 5 3 7 0 4
-9 -4 -11 0 -14 15 -11 11 2 20 1 18 -3 -3 -10 29 -53 35 -47 2 3 4 -5 3 -18
-1 -12 2 -27 7 -34 5 -7 5 -14 -2 -18 -6 -4 -10 -3 -9 2 1 4 0 11 -1 16 -1 4
-3 10 -4 15 -8 32 -19 51 -27 46 -6 -3 -5 -12 3 -22 11 -15 11 -15 -4 -4 -14
11 -18 10 -27 -5 -9 -13 -11 -14 -10 -3 3 29 -1 41 -11 35 -6 -4 -7 -12 -4
-18 4 -7 3 -8 -2 -4 -5 5 -10 13 -10 18 -4 30 -6 32 -14 14 -7 -17 -9 -17 -9
-2 -1 9 -6 16 -13 15 -6 -2 -17 7 -23 19 -7 13 -15 21 -18 18 -4 -3 -4 -2 -1
3 3 4 18 7 32 7 15 0 28 6 28 13 2 19 4 22 10 22 4 0 4 -17 1 -37z m1234 -10
c13 -16 12 -17 -3 -4 -10 7 -18 15 -18 17 0 8 8 3 21 -13z m147 -10 c7 8 8 18
4 23 -4 4 1 2 11 -5 10 -8 16 -20 13 -27 -7 -17 11 -28 18 -12 2 7 4 3 2 -9
-1 -12 -6 -26 -11 -30 -4 -5 -5 -3 -2 3 4 7 -1 18 -10 25 -15 12 -16 12 -10
-3 3 -10 3 -19 -1 -22 -4 -3 -8 4 -9 14 -1 11 2 22 8 25 5 4 9 11 9 17 0 6 -9
3 -20 -7 -11 -10 -17 -23 -13 -29 3 -6 3 -8 -1 -4 -4 3 -6 9 -4 11 2 3 -8 18
-22 34 l-25 28 26 -23 c22 -19 28 -20 37 -9z m97 18 c3 -5 2 -12 -3 -15 -5 -3
-9 1 -9 9 0 17 3 19 12 6z m22 -18 c-4 -3 1 -16 10 -27 18 -21 18 -21 -4 -2
-20 16 -23 36 -6 36 4 0 3 -3 0 -7z m-180 -28 c0 -8 -4 -12 -9 -9 -5 3 -6 10
-3 15 9 13 12 11 12 -6z m169 -7 c10 -13 12 -17 4 -11 -11 10 -17 10 -30 -2
-14 -13 -17 -13 -17 -1 0 8 5 14 11 13 6 -1 10 4 9 11 -4 17 1 15 23 -10z
m-143 -3 c4 -8 3 -16 -1 -19 -4 -3 -9 4 -9 15 -2 23 3 25 10 4z m-3245 -178
c27 -25 27 -39 2 -94 -25 -56 -52 -57 -104 -4 l-38 39 22 43 c40 78 48 79 118
16z m-317 -51 c0 5 4 0 8 -11 5 -12 4 -28 -2 -40 -14 -25 -15 -37 -5 -51 5 -7
-1 -19 -15 -30 -22 -19 -22 -19 -4 2 9 11 14 24 10 28 -5 4 -9 12 -9 17 -1 5
-3 12 -4 17 -1 4 -3 14 -4 22 0 9 -10 15 -24 14 -14 0 -21 4 -18 11 2 6 -2 12
-9 12 -7 0 -11 -6 -8 -14 8 -20 -5 -16 -16 5 -8 16 -6 19 12 18 12 -1 28 -5
35 -9 16 -11 34 1 25 16 -4 7 0 6 10 -2 9 -7 17 -10 18 -5z m0 -193 c13 -16
12 -17 -3 -4 -17 13 -22 21 -14 21 2 0 10 -8 17 -17z"/>
<path d="M6592 2820 c0 -14 2 -19 5 -12 2 6 2 18 0 25 -3 6 -5 1 -5 -13z"/>
<path d="M6449 2458 c0 -7 -2 -23 -3 -35 -1 -12 0 -20 4 -18 8 5 11 65 4 65
-2 0 -4 -6 -5 -12z"/>
<path d="M3717 2234 c-3 -3 4 -21 15 -40 21 -36 36 -48 18 -14 -6 11 -9 24 -6
29 7 10 -18 33 -27 25z"/>
<path d="M6241 1744 c6 -7 16 -11 21 -8 11 7 3 17 -18 20 -12 2 -13 -1 -3 -12z"/>
<path d="M6557 1797 c-3 -9 -14 -14 -26 -12 -11 2 -26 -4 -33 -13 -7 -9 -8
-13 -2 -9 16 9 32 -13 28 -38 -1 -10 2 -25 8 -32 7 -9 7 -17 -1 -27 -8 -9 -8
-16 -2 -20 5 -4 13 -1 18 6 11 19 14 80 2 73 -5 -4 -6 -11 -3 -17 5 -7 2 -8
-5 -3 -9 5 -10 10 -2 18 7 7 7 15 -2 26 -10 12 -9 13 2 6 10 -6 12 -4 6 5 -5
9 -4 11 4 6 6 -4 8 -12 5 -18 -4 -6 -3 -8 2 -5 6 3 10 -3 11 -14 2 -17 32 -70
34 -59 1 3 3 18 5 35 2 21 0 25 -6 15 -5 -8 -6 -18 -3 -24 3 -5 1 -6 -6 -2 -6
4 -9 11 -6 16 3 5 1 12 -5 15 -8 5 -7 11 1 21 6 8 8 14 4 14 -4 0 -1 8 6 17 8
10 9 14 2 10 -6 -4 -16 0 -21 9 -8 14 -10 15 -15 1z m19 -33 c2 -12 -1 -13
-12 -3 -7 6 -11 16 -8 21 7 11 17 3 20 -18z m-36 10 c0 -8 -19 -13 -24 -6 -3
5 1 9 9 9 8 0 15 -2 15 -3z"/>
<path d="M4974 1628 c-7 -11 2 -21 19 -24 7 -1 13 6 13 16 0 17 -23 23 -32 8z"/>
<path d="M5027 1617 c-3 -8 -1 -20 4 -28 7 -12 9 -12 9 1 1 9 5 6 14 -8 10
-20 14 -21 24 -9 10 11 9 17 -3 27 -8 7 -15 9 -15 4 0 -5 -7 -1 -14 9 -11 14
-15 15 -19 4z"/>
<path d="M2776 1341 c-4 -5 -1 -13 5 -16 5 -4 8 -13 5 -21 -8 -21 2 -17 13 5
8 14 7 22 -3 30 -9 8 -16 8 -20 2z"/>
<path d="M4335 2931 c-3 -5 -2 -12 3 -15 5 -3 9 1 9 9 0 17 -3 19 -12 6z"/>
<path d="M6141 2880 c-6 -28 -11 -61 -10 -73 0 -12 7 9 15 47 7 39 12 72 10
74 -2 2 -9 -20 -15 -48z"/>
<path d="M3596 2898 c3 -5 10 -6 15 -3 13 9 11 12 -6 12 -8 0 -12 -4 -9 -9z"/>
<path d="M4315 2901 c-3 -5 -2 -12 3 -15 5 -3 9 1 9 9 0 17 -3 19 -12 6z"/>
<path d="M4178 2893 c6 -2 18 -2 25 0 6 3 1 5 -13 5 -14 0 -19 -2 -12 -5z"/>
<path d="M4088 2883 c6 -2 18 -2 25 0 6 3 1 5 -13 5 -14 0 -19 -2 -12 -5z"/>
<path d="M4013 2873 c9 -2 23 -2 30 0 6 3 -1 5 -18 5 -16 0 -22 -2 -12 -5z"/>
<path d="M3918 2863 c12 -2 30 -2 40 0 9 3 -1 5 -23 4 -22 0 -30 -2 -17 -4z"/>
<path d="M3768 2853 c12 -2 32 -2 45 0 12 2 2 4 -23 4 -25 0 -35 -2 -22 -4z"/>
<path d="M6483 2795 c0 -33 2 -45 4 -27 2 18 2 45 0 60 -2 15 -4 0 -4 -33z"/>
<path d="M6130 2775 c0 -3 6 -18 13 -33 8 -15 27 -98 43 -185 16 -87 30 -154
32 -148 4 12 -45 283 -59 328 -9 29 -29 55 -29 38z"/>
<path d="M6646 2771 c-3 -5 2 -15 12 -22 15 -12 16 -12 5 2 -7 9 -10 19 -6 22
3 4 4 7 0 7 -3 0 -8 -4 -11 -9z"/>
<path d="M5099 2748 c-4 -12 -5 -57 0 -53 6 6 10 55 4 55 -1 0 -3 -1 -4 -2z"/>
<path d="M5037 2666 c-3 -8 2 -20 11 -27 14 -11 15 -11 5 0 -6 7 -9 20 -6 27
3 8 3 14 0 14 -3 0 -7 -6 -10 -14z"/>
<path d="M5056 2608 c3 -5 10 -6 15 -3 13 9 11 12 -6 12 -8 0 -12 -4 -9 -9z"/>
<path d="M5734 2551 c1 -9 -5 -15 -12 -13 -9 2 -7 -5 5 -22 l18 -24 12 23 c7
13 10 30 8 38 -8 19 -32 17 -31 -2z m17 -28 c-12 -20 -14 -14 -5 12 4 9 9 14
11 11 3 -2 0 -13 -6 -23z"/>
<path d="M4573 2545 c4 -5 -1 -17 -10 -27 -19 -21 -27 -52 -11 -42 5 3 7 9 4
12 -4 3 3 16 15 28 16 17 18 24 7 30 -7 4 -10 3 -5 -1z"/>
<path d="M5043 2535 c0 -8 4 -12 9 -9 5 3 6 10 3 15 -9 13 -12 11 -12 -6z"/>
<path d="M6942 2490 c0 -19 2 -27 5 -17 2 9 2 25 0 35 -3 9 -5 1 -5 -18z"/>
<path d="M5036 2493 c-6 -14 -5 -15 5 -6 7 7 10 15 7 18 -3 3 -9 -2 -12 -12z"/>
<path d="M3792 2450 c0 -14 2 -19 5 -12 2 6 2 18 0 25 -3 6 -5 1 -5 -13z"/>
<path d="M3812 2445 c0 -16 2 -22 5 -12 2 9 2 23 0 30 -3 6 -5 -1 -5 -18z"/>
<path d="M5840 2461 c0 -6 4 -13 10 -16 6 -3 7 1 4 9 -7 18 -14 21 -14 7z"/>
<path d="M4519 2443 c-13 -16 -12 -17 4 -4 9 7 17 15 17 17 0 8 -8 3 -21 -13z"/>
<path d="M4385 2429 c-6 -8 -4 -10 5 -4 10 6 12 4 6 -11 -6 -15 -5 -17 5 -6 9
9 10 15 2 23 -8 8 -13 7 -18 -2z"/>
<path d="M5249 2409 c35 -16 66 -28 68 -26 4 5 -111 57 -123 57 -5 -1 20 -14
55 -31z"/>
<path d="M6496 2427 c3 -10 9 -15 12 -12 3 3 0 11 -7 18 -10 9 -11 8 -5 -6z"/>
<path d="M4120 2401 c0 -7 -4 -10 -8 -7 -5 3 -9 -2 -9 -10 0 -13 2 -13 16 0 8
9 12 19 8 22 -4 4 -7 2 -7 -5z"/>
<path d="M4162 2390 c-9 -15 -9 -21 1 -26 6 -4 9 -4 5 1 -4 4 -3 14 4 22 6 7
9 15 7 18 -3 2 -10 -4 -17 -15z"/>
<path d="M4349 2397 c6 -8 7 -18 3 -22 -4 -5 -1 -5 6 -1 10 6 10 11 1 22 -6 8
-14 14 -16 14 -3 0 0 -6 6 -13z"/>
<path d="M3938 2381 c-10 -13 -10 -14 2 -4 11 10 19 9 39 -10 23 -19 24 -19 8
-1 -9 11 -15 23 -12 26 3 2 -2 5 -10 5 -8 0 -21 -7 -27 -16z"/>
<path d="M4049 2395 c-1 -3 -2 -8 -3 -12 -1 -5 -5 -13 -9 -20 -4 -6 -3 -15 3
-18 6 -4 10 -3 9 2 -1 4 0 10 1 13 5 13 8 40 4 40 -2 0 -5 -2 -5 -5z"/>
<path d="M4249 2395 c-1 -3 -2 -8 -3 -12 -1 -5 -5 -13 -9 -20 -4 -6 -3 -15 3
-18 6 -4 10 -3 9 2 -1 4 0 10 1 13 5 13 8 40 4 40 -2 0 -5 -2 -5 -5z"/>
<path d="M4189 2388 c-5 -18 -6 -38 -1 -34 7 8 12 36 6 36 -2 0 -4 -1 -5 -2z"/>
<path d="M4270 2381 c0 -6 4 -13 10 -16 6 -3 7 1 4 9 -7 18 -14 21 -14 7z"/>
<path d="M6222 2365 c0 -16 3 -39 8 -50 l9 -20 -1 20 c0 11 -4 34 -8 50 l-8
30 0 -30z"/>
<path d="M6533 2355 c0 -22 2 -30 4 -17 2 12 2 30 0 40 -3 9 -5 -1 -4 -23z"/>
<path d="M2262 2355 c0 -16 2 -22 5 -12 2 9 2 23 0 30 -3 6 -5 -1 -5 -18z"/>
<path d="M4121 2366 c-9 -11 -9 -16 1 -22 7 -4 10 -4 6 1 -4 4 -3 14 3 22 6 7
9 13 6 13 -2 0 -10 -6 -16 -14z"/>
<path d="M3950 2366 c0 -2 8 -10 18 -17 15 -13 16 -12 3 4 -13 16 -21 21 -21
13z"/>
<path d="M5380 2350 c8 -5 20 -10 25 -10 6 0 3 5 -5 10 -8 5 -19 10 -25 10 -5
0 -3 -5 5 -10z"/>
<path d="M5430 2330 c8 -5 20 -10 25 -10 6 0 3 5 -5 10 -8 5 -19 10 -25 10 -5
0 -3 -5 5 -10z"/>
<path d="M6786 2332 c-3 -6 -2 -13 4 -17 6 -4 8 -10 5 -15 -3 -5 -1 -11 4 -15
5 -3 8 -14 6 -25 -2 -11 0 -22 4 -25 12 -7 6 84 -6 96 -7 7 -13 7 -17 1z"/>
<path d="M6543 2265 c0 -27 2 -38 4 -22 2 15 2 37 0 50 -2 12 -4 0 -4 -28z"/>
<path d="M2272 2270 c0 -14 2 -19 5 -12 2 6 2 18 0 25 -3 6 -5 1 -5 -13z"/>
<path d="M6242 2270 c0 -14 2 -19 5 -12 2 6 2 18 0 25 -3 6 -5 1 -5 -13z"/>
<path d="M5820 2226 c0 -14 -8 -42 -17 -62 l-18 -37 -82 7 c-92 7 -113 -4 -72
-37 21 -17 34 -19 119 -13 52 3 115 12 139 19 l44 12 -47 48 c-25 26 -46 54
-46 62 0 8 -4 17 -10 20 -6 3 -10 -5 -10 -19z"/>
<path d="M6252 2220 c0 -14 2 -19 5 -12 2 6 2 18 0 25 -3 6 -5 1 -5 -13z"/>
<path d="M2282 2205 c0 -16 2 -22 5 -12 2 9 2 23 0 30 -3 6 -5 -1 -5 -18z"/>
<path d="M6812 2209 c3 -8 2 -21 -3 -30 -6 -12 -2 -22 13 -35 21 -19 21 -19 9
4 -7 12 -9 31 -6 42 3 10 1 22 -6 26 -7 4 -10 2 -7 -7z"/>
<path d="M2657 2175 c-9 -19 -22 -67 -28 -106 -20 -127 7 -215 85 -287 61 -57
107 -75 181 -74 73 1 242 51 210 62 -12 4 -25 1 -34 -7 -7 -8 -20 -12 -27 -9
-8 3 -14 1 -14 -4 0 -6 -5 -10 -11 -10 -5 0 -7 5 -3 12 4 6 3 8 -4 4 -6 -3
-15 2 -21 11 -6 10 -11 13 -11 6 0 -6 5 -15 10 -18 6 -4 8 -11 4 -16 -3 -6
-12 -3 -20 8 -12 17 -13 17 -9 -4 3 -17 0 -20 -13 -16 -10 4 -12 8 -4 11 7 2
10 7 8 11 -3 4 -6 39 -8 79 -1 40 -6 72 -10 72 -4 0 -5 7 -2 15 4 8 1 15 -6
15 -8 0 -9 -10 -5 -28 4 -21 1 -33 -12 -43 -16 -12 -17 -12 -7 1 15 20 10 88
-7 105 -17 17 -45 23 -44 10 0 -5 8 -10 17 -10 10 -1 21 -5 25 -9 4 -3 -9 -5
-28 -4 -26 2 -33 -1 -31 -12 3 -11 -1 -11 -16 3 -10 9 -22 15 -25 12 -4 -3 -3
0 2 6 5 6 7 19 4 28 -4 12 -3 13 5 2 6 -8 12 -9 16 -3 3 6 2 13 -4 17 -5 3
-10 12 -10 18 0 7 4 6 10 -3 9 -13 10 -13 10 0 -1 18 -46 53 -59 45 -5 -3 -12
-1 -16 5 -3 5 -13 10 -21 10 -8 0 -12 -5 -9 -10 4 -6 11 -8 16 -5 16 10 10 -2
-8 -16 -10 -7 -15 -9 -10 -4 4 4 -1 17 -10 28 -10 12 -12 17 -4 12 9 -5 12 -3
9 6 -3 8 -10 13 -15 12 -6 -1 -8 9 -5 22 3 16 0 25 -8 25 -7 0 -10 -7 -5 -17
5 -14 4 -15 -6 -6 -9 9 -9 15 0 26 7 9 8 23 3 36 -7 21 -9 20 -25 -14z m120
-135 c-3 -11 -1 -23 4 -26 8 -5 13 10 10 29 -1 5 3 6 9 2 7 -4 6 -13 -2 -28
-7 -12 -12 -25 -13 -29 0 -3 -3 -10 -7 -14 -4 -3 -6 3 -3 14 2 12 0 24 -5 27
-8 5 -2 45 7 45 3 0 3 -9 0 -20z m-25 -2 c-9 -9 -9 -15 1 -27 11 -14 10 -14
-6 -2 -13 10 -15 17 -6 27 6 8 14 14 17 14 3 0 1 -5 -6 -12z m151 -99 c-6 -6
-9 -19 -6 -28 3 -13 2 -12 -7 2 -6 9 -15 15 -20 12 -5 -3 -11 -1 -15 4 -3 6 3
8 15 6 11 -2 22 0 25 6 4 5 9 9 13 9 3 0 1 -5 -5 -11z m7 -55 c0 -8 -19 -13
-24 -6 -3 5 1 9 9 9 8 0 15 -2 15 -3z m30 -28 c0 -2 -8 -10 -17 -17 -16 -13
-17 -12 -4 4 13 16 21 21 21 13z"/>
<path d="M6262 2170 c0 -14 2 -19 5 -12 2 6 2 18 0 25 -3 6 -5 1 -5 -13z"/>
<path d="M2292 2145 c0 -16 2 -22 5 -12 2 9 2 23 0 30 -3 6 -5 -1 -5 -18z"/>
<path d="M5980 2150 c-11 -7 -6 -8 16 -4 18 3 46 -1 69 -10 21 -9 40 -15 42
-12 6 5 -75 36 -95 36 -9 0 -24 -5 -32 -10z"/>
<path d="M6477 2153 c-2 -5 -3 -16 -2 -25 5 -26 -13 -22 -18 5 -2 12 -4 6 -3
-14 1 -51 30 -47 31 4 1 37 0 43 -8 30z"/>
<path d="M2302 2095 c0 -11 4 -31 8 -45 6 -20 8 -21 8 -5 0 11 -4 31 -8 45 -6
20 -8 21 -8 5z"/>
<path d="M3806 2097 c3 -10 9 -15 12 -12 3 3 0 11 -7 18 -10 9 -11 8 -5 -6z"/>
<path d="M3031 2062 c-2 -36 15 -60 103 -150 45 -45 80 -87 79 -92 -7 -26 124
56 133 84 8 25 -9 34 -86 41 -89 9 -176 34 -196 56 -9 10 -20 33 -24 51 -6 25
-8 27 -9 10z"/>
<path d="M2840 2020 c0 -5 1 -12 3 -14 1 -2 -6 -13 -16 -24 -12 -13 -15 -22
-8 -27 6 -3 12 -4 12 -1 4 17 7 26 8 29 6 6 10 47 6 47 -3 0 -5 -4 -5 -10z"/>
<path d="M2860 2000 c0 -5 5 -10 11 -10 5 0 7 5 4 10 -3 6 -8 10 -11 10 -2 0
-4 -4 -4 -10z"/>
<path d="M4905 1769 c-4 -6 -5 -12 -2 -15 2 -3 7 2 10 11 7 17 1 20 -8 4z"/>
<path d="M4923 1743 c0 -9 4 -10 14 -2 7 6 13 12 13 14 0 1 -6 2 -13 2 -8 0
-14 -6 -14 -14z"/>
<path d="M4880 1716 c0 -2 6 -9 14 -15 10 -9 15 -8 19 2 3 8 -3 13 -14 14 -10
1 -19 0 -19 -1z"/>
<path d="M2715 1510 c-4 -6 -10 -8 -15 -5 -9 6 -3 -46 7 -55 3 -3 3 4 1 16 -1
11 3 28 11 37 7 10 11 17 8 17 -3 0 -9 -5 -12 -10z"/>
<path d="M2630 1495 c0 -5 5 -17 10 -25 5 -8 10 -10 10 -5 0 6 -5 17 -10 25
-5 8 -10 11 -10 5z"/>
<path d="M2659 1487 c5 -5 7 -17 4 -26 -4 -14 -3 -14 6 -1 9 12 11 13 11 1 0
-8 3 -11 6 -8 4 4 2 13 -4 20 -7 8 -10 16 -7 19 3 2 -2 5 -10 5 -10 0 -12 -4
-6 -10z"/>
<path d="M2724 1488 c-4 -7 -3 -8 4 -4 8 5 12 -1 13 -16 1 -17 3 -18 6 -5 2 9
9 15 14 12 5 -4 9 -4 9 -1 0 3 -9 10 -19 16 -14 7 -22 7 -27 -2z"/>
<path d="M2635 1409 c-4 -6 -5 -12 -2 -15 2 -3 7 2 10 11 7 17 1 20 -8 4z"/>
<path d="M2785 1401 c-3 -5 -2 -12 3 -15 5 -3 9 1 9 9 0 17 -3 19 -12 6z"/>
<path d="M2740 1296 c0 -8 4 -17 8 -20 4 -2 8 4 8 15 0 10 -4 19 -8 19 -4 0
-8 -6 -8 -14z"/>
</g>
</svg>
